<svg width="64" height="64" viewBox="0 0 64 64" fill="none" xmlns="http://www.w3.org/2000/svg">
<g filter="url(#filter0_ii_28_118)">
<circle cx="32" cy="31.9995" r="16" fill="url(#paint0_linear_28_118)"/>
</g>
<g style="mix-blend-mode:multiply" opacity="0.6">
<path fill-rule="evenodd" clip-rule="evenodd" d="M22.2046 36.1915C22.0838 36.9851 21.969 36.876 21.7713 36.6882L21.7713 36.6882C21.5956 36.5214 21.3546 36.2924 20.9861 36.5793C20.7211 36.8751 20.3439 37.5718 20.5221 37.7674C21.5608 37.5768 21.556 38.7435 20.5044 38.5299C19.8382 38.8807 19.4099 38.6589 19.135 38.5166C18.9026 38.3962 18.78 38.3327 18.716 38.7205C18.8046 39.2478 19.2335 39.3439 19.5813 39.4219C19.9142 39.4965 20.1728 39.5545 19.9875 39.9579L19.9808 39.9904L19.9808 39.9905C19.9034 40.367 19.8454 40.6488 20.4354 40.7303C21.0613 40.6952 21.0309 41.26 21.002 41.7965C20.97 42.3899 20.9399 42.9488 21.8016 42.6234C23.215 42.5199 22.7559 43.3792 22.2826 44.2652C22.226 44.3711 22.1692 44.4774 22.1154 44.5825C18.3915 41.6529 16 37.1058 16 32.0001C16 26.463 18.8127 21.5828 23.0873 18.7104C23.2478 18.7442 23.4029 18.816 23.5451 18.9497L23.5467 18.953C23.5146 18.7405 23.5708 18.5256 23.6753 18.3336C24.0258 18.1196 24.3852 17.9187 24.7529 17.7317C24.8405 17.8168 24.8793 17.9821 24.8343 18.2496C24.9109 18.2833 24.9988 18.2838 25.0801 18.2842H25.0801C25.2523 18.2851 25.3946 18.2858 25.3368 18.6029C25.3123 18.8906 25.0505 18.9505 24.8068 19.0062L24.8068 19.0062C24.5076 19.0747 24.2358 19.1369 24.465 19.607C24.441 19.6963 24.4119 19.7913 24.3818 19.8898C24.1921 20.5093 23.9589 21.2712 24.6625 21.671C25.619 19.1558 27.5864 19.8867 28.6738 20.2906L28.6739 20.2906C29.293 20.5206 29.6268 20.6446 29.3263 20.0031C27.403 19.3359 28.4144 17.3984 30.1466 18.2135C29.8719 17.8098 29.4573 17.7317 29.0532 17.6555L29.0531 17.6555L29.053 17.6555C28.6331 17.5764 28.2244 17.4995 27.9954 17.0615C28.0051 16.9239 28.1502 16.6848 28.327 16.4237C28.917 16.2851 29.5195 16.1792 30.1326 16.1079C30.3014 16.7843 30.6143 17.3427 31.028 17.2751C31.2299 17.3206 31.4813 17.3161 31.7345 17.3115L31.7346 17.3115C32.3411 17.3006 32.9581 17.2895 32.9321 17.9654C33.5673 17.6877 33.6604 18.066 33.751 18.4338L33.751 18.4338C33.781 18.5559 33.8108 18.6768 33.86 18.7722C35.8703 19.8454 35.3149 20.0273 34.6982 20.2292L34.6982 20.2293L34.6981 20.2293C34.262 20.3721 33.7952 20.525 34.1843 21.0104C33.9348 21.3959 33.5096 21.1614 33.0772 20.9228C32.5971 20.6579 32.1081 20.3882 31.8404 20.9562C31.7274 21.2449 32.1401 21.5549 32.6062 21.905L32.6062 21.905C33.1669 22.3262 33.8048 22.8053 33.6979 23.3752C33.2974 23.969 33.6718 24.3312 34.0718 24.7182C34.4512 25.0852 34.8536 25.4745 34.6402 26.1047C34.3705 26.8212 35.4638 27.1729 35.6806 26.343C35.8299 25.7317 36.2938 25.9552 36.7064 26.2263C36.0225 25.6544 35.5778 23.3554 36.8959 24.3661C36.9755 24.8431 37.3427 25.0569 37.6947 25.2619C38.1019 25.4989 38.4889 25.7242 38.3873 26.3315C37.7383 27.4856 40.0515 28.7971 42.1548 29.9896C43.5166 30.7617 44.7908 31.4841 45.1157 32.0815C44.9776 33.0346 45.6037 32.7405 45.4143 31.9829C45.4312 31.8839 45.3779 31.7734 45.3271 31.6682L45.3271 31.6682L45.327 31.6681C45.2473 31.5028 45.1738 31.3506 45.3886 31.2763C45.6396 31.1888 45.6994 31.3893 45.7624 31.6001L45.7624 31.6001L45.7625 31.6001C45.7942 31.7062 45.8266 31.815 45.8847 31.8909C46.0469 30.1654 47.6876 33.056 46.0131 33.3633C47.3201 34.3696 47.0473 35.5892 46.7682 36.8371C46.6302 37.4543 46.4906 38.0784 46.5398 38.6871C46.2788 39.2539 45.9855 39.8028 45.6624 40.3315C45.6152 40.2294 45.6045 40.0724 45.6503 39.8479C45.6608 39.5728 45.7861 39.1134 45.9258 38.6008L45.9258 38.6008C46.2754 37.3185 46.7156 35.7038 45.6776 35.8118C45.5044 36.5331 45.5027 37.3139 45.501 38.109V38.1091C45.4988 39.1281 45.4965 40.1707 45.1332 41.1415C44.585 41.9275 43.9681 42.6621 43.2911 43.3364C43.0849 43.2366 42.9509 42.8562 42.7959 42.4165C42.6538 42.0133 42.4941 41.5602 42.2452 41.2282C42.9853 41.3433 43.5504 40.6843 43.9534 39.4025C43.4878 39.5539 43.1654 39.2822 42.9161 39.0722C42.6136 38.8172 42.4188 38.6531 42.2067 39.4469C41.1615 38.4773 39.6877 36.4133 40.0602 34.8571C40.552 33.8534 40.0283 33.9615 39.3563 34.1003C38.9709 34.1798 38.5366 34.2695 38.2172 34.1652C36.5074 33.7034 36.6872 35.7576 36.8477 36.8619C36.6225 37.4105 36.8916 37.7552 37.1594 38.0983L37.1594 38.0984L37.1596 38.0986L37.1596 38.0986L37.1596 38.0986C37.3041 38.2838 37.4482 38.4684 37.514 38.6844C37.7764 38.7397 38.023 38.7074 38.2599 38.6763L38.2601 38.6763C38.7551 38.6114 39.208 38.552 39.6749 39.3088C40.6868 39.6742 40.472 40.3596 40.2482 41.0737C40.0381 41.7439 39.82 42.4394 40.6012 42.9192C41.2097 43.6883 40.6879 44.4919 39.8756 44.7942C39.9617 43.1506 39.9091 43.163 39.5516 43.2472C39.3096 43.3042 38.928 43.3941 38.3552 43.0261C38.5864 43.9151 37.7901 44.0811 37.3518 43.5979C37.4339 43.3158 37.3668 43.0854 37.3003 42.8571L37.3003 42.8571L37.3003 42.8571C37.2471 42.6745 37.1943 42.4934 37.2186 42.2882C36.8493 42.7877 36.4415 42.3227 36.5266 41.81C36.4034 41.3392 36.8389 40.9379 37.2135 40.5927L37.2136 40.5927C37.6732 40.1692 38.0413 39.8302 37.1736 39.5504C36.8514 39.1716 36.5952 39.6502 36.3336 40.139C36.1389 40.5027 35.9412 40.872 35.7111 40.8979C35.502 40.6928 35.6102 40.4393 35.7264 40.1674L35.7264 40.1674C35.8448 39.8903 35.9713 39.5941 35.7785 39.3105C35.7802 38.5602 35.1452 38.8146 34.6223 39.0242C34.1477 39.2144 33.7654 39.3677 34.035 38.6992C34.9068 37.9942 33.9804 37.3549 33.7364 38.5726C33.2225 38.1732 33.631 37.4989 33.9885 36.9089C34.3971 36.2345 34.739 35.6703 33.5598 35.7527C33.2566 36.0755 33.1384 35.954 32.9811 35.7922L32.9811 35.7922C32.891 35.6995 32.7881 35.5936 32.6302 35.5505C31.1018 35.7161 30.9228 34.4309 30.7326 33.0656C30.566 31.8696 30.3908 30.6122 29.2926 30.2147C28.8857 29.7865 28.96 30.0975 29.0451 30.4538C29.0916 30.6486 29.1414 30.8571 29.1176 30.9657C27.9357 30.6947 28.0109 31.1913 28.0649 31.5479C28.1161 31.8855 28.1482 32.0975 27.0771 31.4143C27.0979 32.065 27.0353 34.6122 26.2181 33.4816C25.7802 32.8276 25.0962 32.5978 24.4401 32.3775C23.7494 32.1455 23.0897 31.9239 22.7809 31.2286C22.0376 30.5349 22.3309 30.069 22.6854 29.5058L22.6854 29.5058L22.6855 29.5056L22.6855 29.5056C22.808 29.311 22.9377 29.1049 23.0346 28.8737C22.9297 27.8614 23.3461 28.1472 23.8174 28.4707L23.8175 28.4708C24.0171 28.6078 24.2265 28.7516 24.4104 28.8064C24.2781 28.5731 24.1508 28.372 24.0447 28.2044C23.623 27.5382 23.5368 27.4019 24.8054 27.8877C24.4651 27.403 24.6483 26.9997 24.8337 26.5916L24.8337 26.5916L24.8337 26.5915C24.9317 26.3757 25.0304 26.1586 25.0526 25.9273C25.0662 25.7867 24.9964 25.6438 24.9271 25.5022L24.9271 25.5021C24.8004 25.2432 24.6758 24.9883 25.0671 24.7588C24.7765 24.3957 23.8871 24.3381 23.7297 24.9741C23.627 26.0949 22.3844 25.9766 22.2575 25.1171C23.102 24.8985 23.6623 24.6306 23.4247 23.5017C24.16 22.049 19.6359 23.5921 19.7483 24.3053C19.7952 24.5609 20.0384 24.5801 20.2657 24.5981L20.2659 24.5981L20.2659 24.5981C20.5048 24.6169 20.7262 24.6344 20.6842 24.9232C20.465 25.1334 20.1791 25.0806 19.8973 25.0285C19.4939 24.9539 19.0987 24.8808 18.9183 25.5821C18.513 26.7106 19.451 26.8031 20.2556 26.8825L20.2556 26.8825C20.761 26.9323 21.2137 26.977 21.2477 27.2698C21.273 27.5234 21.4538 27.4712 21.6573 27.4126L21.6573 27.4126C21.8166 27.3667 21.9897 27.3168 22.1131 27.4062C21.7984 27.9272 20.1304 29.7118 19.8526 29.8302C19.9722 30.093 20.5535 30.4612 21.1566 30.8433L21.1567 30.8433C22.2465 31.5337 23.4077 32.2692 22.0456 32.5104C21.567 32.5297 21.6221 32.7264 21.6719 32.9046C21.7366 33.1357 21.7925 33.3356 20.6618 33.0757C20.6587 33.4734 21.0075 33.4918 21.2902 33.5067C21.6033 33.5232 21.8354 33.5354 21.4195 34.0535C20.7725 34.9936 21.2132 35.1076 21.6779 35.2278L21.678 35.2278C22.1012 35.3372 22.5443 35.4518 22.2046 36.1997V36.1915ZM41.2376 26.1042L41.2377 26.1046C41.2947 26.2427 41.3525 26.3829 41.3926 26.5283C39.799 26.171 45.0194 31.5273 45.1061 25.8615C45.159 25.3291 44.7095 24.3579 44.4222 23.8419C43.9163 23.8054 43.5282 23.415 43.1584 23.0431L43.1583 23.043C42.7628 22.6452 42.3882 22.2685 41.9129 22.3678C41.3237 22.9183 39.4373 24.7999 41.0716 25.1828C40.9899 25.5039 41.1118 25.7992 41.2376 26.1042ZM22.5856 35.4457L22.5856 35.4456C22.7058 35.0364 22.8154 34.6632 23.0266 35.217C23.0992 35.4844 23.3132 35.4377 23.6028 35.3745L23.6029 35.3745L23.6029 35.3745C24.0749 35.2716 24.7478 35.1248 25.3368 36.2227C25.1974 36.3339 25.0459 36.4312 24.8944 36.5284L24.8943 36.5285C24.5064 36.7775 24.1183 37.0266 23.9336 37.511C23.6751 38.0928 22.3298 37.5784 22.3651 37.1594C22.4818 36.9097 22.3939 36.7145 22.3149 36.5391L22.3148 36.5391C22.2363 36.3647 22.1665 36.2099 22.3153 36.0403C22.4288 35.9797 22.5093 35.7054 22.5856 35.4457Z" fill="#94A3B8"/>
</g>
<g filter="url(#filter1_f_28_118)">
<ellipse cx="31.9998" cy="25.3327" rx="9.33333" ry="6.66667" fill="url(#paint1_linear_28_118)" style="mix-blend-mode:soft-light"/>
</g>
<g filter="url(#filter2_di_28_118)">
<ellipse cx="39.4998" cy="25.0001" rx="1.5" ry="2" transform="rotate(-22.1932 39.4998 25.0001)" fill="#94A3B8"/>
</g>
<g filter="url(#filter3_di_28_118)">
<ellipse cx="35.7553" cy="31.9184" rx="1.87701" ry="1.30625" transform="rotate(-22.1932 35.7553 31.9184)" fill="#64748B"/>
</g>
<g filter="url(#filter4_di_28_118)">
<ellipse cx="26.0198" cy="22.8763" rx="1.49447" ry="1.5255" transform="rotate(15.8877 26.0198 22.8763)" fill="#94A3B8"/>
</g>
<g filter="url(#filter5_di_28_118)">
<ellipse cx="28.0298" cy="44.0545" rx="1.56468" ry="1.60711" transform="rotate(-20.5835 28.0298 44.0545)" fill="#475569"/>
</g>
<g filter="url(#filter6_di_28_118)">
<ellipse cx="35.9518" cy="39.0825" rx="2.40196" ry="2" transform="rotate(-20.5835 35.9518 39.0825)" fill="#475569"/>
</g>
<g filter="url(#filter7_di_28_118)">
<ellipse cx="25.5367" cy="34.5951" rx="1.23333" ry="1.02693" transform="rotate(56.5561 25.5367 34.5951)" fill="#64748B"/>
</g>
<g filter="url(#filter8_di_28_118)">
<ellipse cx="20.5155" cy="37.3951" rx="0.5923" ry="0.49318" transform="rotate(-20.5835 20.5155 37.3951)" fill="#94A3B8"/>
</g>
<g filter="url(#filter9_di_28_118)">
<ellipse cx="45.7281" cy="29.6697" rx="0.5923" ry="0.49318" transform="rotate(48.1814 45.7281 29.6697)" fill="#94A3B8"/>
</g>
<g filter="url(#filter10_di_28_118)">
<ellipse cx="42.7627" cy="40.7703" rx="0.5923" ry="0.49318" transform="rotate(48.1814 42.7627 40.7703)" fill="#64748B"/>
</g>
<g filter="url(#filter11_di_28_118)">
<ellipse cx="33.7278" cy="20.6696" rx="0.5923" ry="0.49318" transform="rotate(20.8278 33.7278 20.6696)" fill="#94A3B8"/>
</g>
<g filter="url(#filter12_di_28_118)">
<ellipse cx="29.7288" cy="28.6716" rx="0.5923" ry="0.49318" transform="rotate(20.8278 29.7288 28.6716)" fill="#94A3B8"/>
</g>
<g filter="url(#filter13_di_28_118)">
<ellipse cx="41.7289" cy="33.6714" rx="0.5923" ry="0.49318" transform="rotate(94.6584 41.7289 33.6714)" fill="#94A3B8"/>
</g>
<g filter="url(#filter14_di_28_118)">
<ellipse cx="31.5394" cy="36.6304" rx="0.5923" ry="0.49318" transform="rotate(94.6584 31.5394 36.6304)" fill="#94A3B8"/>
</g>
<g filter="url(#filter15_di_28_118)">
<ellipse cx="34.5394" cy="45.6304" rx="0.5923" ry="0.49318" transform="rotate(94.6584 34.5394 45.6304)" fill="#94A3B8"/>
</g>
<defs>
<filter id="filter0_ii_28_118" x="16" y="14.9995" width="32" height="34" filterUnits="userSpaceOnUse" color-interpolation-filters="sRGB">
<feFlood flood-opacity="0" result="BackgroundImageFix"/>
<feBlend mode="normal" in="SourceGraphic" in2="BackgroundImageFix" result="shape"/>
<feColorMatrix in="SourceAlpha" type="matrix" values="0 0 0 0 0 0 0 0 0 0 0 0 0 0 0 0 0 0 127 0" result="hardAlpha"/>
<feMorphology radius="1" operator="erode" in="SourceAlpha" result="effect1_innerShadow_28_118"/>
<feOffset dy="-1"/>
<feGaussianBlur stdDeviation="3"/>
<feComposite in2="hardAlpha" operator="arithmetic" k2="-1" k3="1"/>
<feColorMatrix type="matrix" values="0 0 0 0 0.278431 0 0 0 0 0.333333 0 0 0 0 0.411765 0 0 0 1 0"/>
<feBlend mode="normal" in2="shape" result="effect1_innerShadow_28_118"/>
<feColorMatrix in="SourceAlpha" type="matrix" values="0 0 0 0 0 0 0 0 0 0 0 0 0 0 0 0 0 0 127 0" result="hardAlpha"/>
<feOffset dy="1"/>
<feGaussianBlur stdDeviation="1"/>
<feComposite in2="hardAlpha" operator="arithmetic" k2="-1" k3="1"/>
<feColorMatrix type="matrix" values="0 0 0 0 0.796078 0 0 0 0 0.835294 0 0 0 0 0.882353 0 0 0 1 0"/>
<feBlend mode="normal" in2="effect1_innerShadow_28_118" result="effect2_innerShadow_28_118"/>
</filter>
<filter id="filter1_f_28_118" x="19.9998" y="15.9993" width="23.9998" height="18.6668" filterUnits="userSpaceOnUse" color-interpolation-filters="sRGB">
<feFlood flood-opacity="0" result="BackgroundImageFix"/>
<feBlend mode="normal" in="SourceGraphic" in2="BackgroundImageFix" result="shape"/>
<feGaussianBlur stdDeviation="1.33333" result="effect1_foregroundBlur_28_118"/>
</filter>
<filter id="filter2_di_28_118" x="37.4185" y="23.063" width="4.1626" height="4.87402" filterUnits="userSpaceOnUse" color-interpolation-filters="sRGB">
<feFlood flood-opacity="0" result="BackgroundImageFix"/>
<feColorMatrix in="SourceAlpha" type="matrix" values="0 0 0 0 0 0 0 0 0 0 0 0 0 0 0 0 0 0 127 0" result="hardAlpha"/>
<feOffset dy="0.5"/>
<feGaussianBlur stdDeviation="0.25"/>
<feComposite in2="hardAlpha" operator="out"/>
<feColorMatrix type="matrix" values="0 0 0 0 0.886275 0 0 0 0 0.909804 0 0 0 0 0.941176 0 0 0 0.7 0"/>
<feBlend mode="normal" in2="BackgroundImageFix" result="effect1_dropShadow_28_118"/>
<feBlend mode="normal" in="SourceGraphic" in2="effect1_dropShadow_28_118" result="shape"/>
<feColorMatrix in="SourceAlpha" type="matrix" values="0 0 0 0 0 0 0 0 0 0 0 0 0 0 0 0 0 0 127 0" result="hardAlpha"/>
<feOffset dy="0.5"/>
<feGaussianBlur stdDeviation="0.5"/>
<feComposite in2="hardAlpha" operator="arithmetic" k2="-1" k3="1"/>
<feColorMatrix type="matrix" values="0 0 0 0 0.392157 0 0 0 0 0.454902 0 0 0 0 0.545098 0 0 0 1 0"/>
<feBlend mode="normal" in2="shape" result="effect2_innerShadow_28_118"/>
</filter>
<filter id="filter3_di_28_118" x="33.4482" y="30.5161" width="4.61426" height="3.80469" filterUnits="userSpaceOnUse" color-interpolation-filters="sRGB">
<feFlood flood-opacity="0" result="BackgroundImageFix"/>
<feColorMatrix in="SourceAlpha" type="matrix" values="0 0 0 0 0 0 0 0 0 0 0 0 0 0 0 0 0 0 127 0" result="hardAlpha"/>
<feOffset dy="0.5"/>
<feGaussianBlur stdDeviation="0.25"/>
<feComposite in2="hardAlpha" operator="out"/>
<feColorMatrix type="matrix" values="0 0 0 0 0.886275 0 0 0 0 0.909804 0 0 0 0 0.941176 0 0 0 0.7 0"/>
<feBlend mode="normal" in2="BackgroundImageFix" result="effect1_dropShadow_28_118"/>
<feBlend mode="normal" in="SourceGraphic" in2="effect1_dropShadow_28_118" result="shape"/>
<feColorMatrix in="SourceAlpha" type="matrix" values="0 0 0 0 0 0 0 0 0 0 0 0 0 0 0 0 0 0 127 0" result="hardAlpha"/>
<feOffset dy="0.5"/>
<feGaussianBlur stdDeviation="0.5"/>
<feComposite in2="hardAlpha" operator="arithmetic" k2="-1" k3="1"/>
<feColorMatrix type="matrix" values="0 0 0 0 0.392157 0 0 0 0 0.454902 0 0 0 0 0.545098 0 0 0 1 0"/>
<feBlend mode="normal" in2="shape" result="effect2_innerShadow_28_118"/>
</filter>
<filter id="filter4_di_28_118" x="24.0225" y="21.3525" width="3.99463" height="4.04736" filterUnits="userSpaceOnUse" color-interpolation-filters="sRGB">
<feFlood flood-opacity="0" result="BackgroundImageFix"/>
<feColorMatrix in="SourceAlpha" type="matrix" values="0 0 0 0 0 0 0 0 0 0 0 0 0 0 0 0 0 0 127 0" result="hardAlpha"/>
<feOffset dy="0.5"/>
<feGaussianBlur stdDeviation="0.25"/>
<feComposite in2="hardAlpha" operator="out"/>
<feColorMatrix type="matrix" values="0 0 0 0 0.886275 0 0 0 0 0.909804 0 0 0 0 0.941176 0 0 0 0.7 0"/>
<feBlend mode="normal" in2="BackgroundImageFix" result="effect1_dropShadow_28_118"/>
<feBlend mode="normal" in="SourceGraphic" in2="effect1_dropShadow_28_118" result="shape"/>
<feColorMatrix in="SourceAlpha" type="matrix" values="0 0 0 0 0 0 0 0 0 0 0 0 0 0 0 0 0 0 127 0" result="hardAlpha"/>
<feOffset dy="0.5"/>
<feGaussianBlur stdDeviation="0.5"/>
<feComposite in2="hardAlpha" operator="arithmetic" k2="-1" k3="1"/>
<feColorMatrix type="matrix" values="0 0 0 0 0.392157 0 0 0 0 0.454902 0 0 0 0 0.545098 0 0 0 1 0"/>
<feBlend mode="normal" in2="shape" result="effect2_innerShadow_28_118"/>
</filter>
<filter id="filter5_di_28_118" x="25.9595" y="42.4521" width="4.14062" height="4.20459" filterUnits="userSpaceOnUse" color-interpolation-filters="sRGB">
<feFlood flood-opacity="0" result="BackgroundImageFix"/>
<feColorMatrix in="SourceAlpha" type="matrix" values="0 0 0 0 0 0 0 0 0 0 0 0 0 0 0 0 0 0 127 0" result="hardAlpha"/>
<feOffset dy="0.5"/>
<feGaussianBlur stdDeviation="0.25"/>
<feComposite in2="hardAlpha" operator="out"/>
<feColorMatrix type="matrix" values="0 0 0 0 0.886275 0 0 0 0 0.909804 0 0 0 0 0.941176 0 0 0 0.15 0"/>
<feBlend mode="normal" in2="BackgroundImageFix" result="effect1_dropShadow_28_118"/>
<feBlend mode="normal" in="SourceGraphic" in2="effect1_dropShadow_28_118" result="shape"/>
<feColorMatrix in="SourceAlpha" type="matrix" values="0 0 0 0 0 0 0 0 0 0 0 0 0 0 0 0 0 0 127 0" result="hardAlpha"/>
<feOffset dy="0.5"/>
<feGaussianBlur stdDeviation="0.5"/>
<feComposite in2="hardAlpha" operator="arithmetic" k2="-1" k3="1"/>
<feColorMatrix type="matrix" values="0 0 0 0 0.392157 0 0 0 0 0.454902 0 0 0 0 0.545098 0 0 0 1 0"/>
<feBlend mode="normal" in2="shape" result="effect2_innerShadow_28_118"/>
</filter>
<filter id="filter6_di_28_118" x="33.0952" y="37.0283" width="5.71338" height="5.10889" filterUnits="userSpaceOnUse" color-interpolation-filters="sRGB">
<feFlood flood-opacity="0" result="BackgroundImageFix"/>
<feColorMatrix in="SourceAlpha" type="matrix" values="0 0 0 0 0 0 0 0 0 0 0 0 0 0 0 0 0 0 127 0" result="hardAlpha"/>
<feOffset dy="0.5"/>
<feGaussianBlur stdDeviation="0.25"/>
<feComposite in2="hardAlpha" operator="out"/>
<feColorMatrix type="matrix" values="0 0 0 0 0.886275 0 0 0 0 0.909804 0 0 0 0 0.941176 0 0 0 0.3 0"/>
<feBlend mode="normal" in2="BackgroundImageFix" result="effect1_dropShadow_28_118"/>
<feBlend mode="normal" in="SourceGraphic" in2="effect1_dropShadow_28_118" result="shape"/>
<feColorMatrix in="SourceAlpha" type="matrix" values="0 0 0 0 0 0 0 0 0 0 0 0 0 0 0 0 0 0 127 0" result="hardAlpha"/>
<feOffset dy="0.5"/>
<feGaussianBlur stdDeviation="0.5"/>
<feComposite in2="hardAlpha" operator="arithmetic" k2="-1" k3="1"/>
<feColorMatrix type="matrix" values="0 0 0 0 0.392157 0 0 0 0 0.454902 0 0 0 0 0.545098 0 0 0 1 0"/>
<feBlend mode="normal" in2="shape" result="effect2_innerShadow_28_118"/>
</filter>
<filter id="filter7_di_28_118" x="23.9429" y="33.4204" width="3.1875" height="3.34961" filterUnits="userSpaceOnUse" color-interpolation-filters="sRGB">
<feFlood flood-opacity="0" result="BackgroundImageFix"/>
<feColorMatrix in="SourceAlpha" type="matrix" values="0 0 0 0 0 0 0 0 0 0 0 0 0 0 0 0 0 0 127 0" result="hardAlpha"/>
<feOffset dy="0.5"/>
<feGaussianBlur stdDeviation="0.25"/>
<feComposite in2="hardAlpha" operator="out"/>
<feColorMatrix type="matrix" values="0 0 0 0 0.886275 0 0 0 0 0.909804 0 0 0 0 0.941176 0 0 0 0.7 0"/>
<feBlend mode="normal" in2="BackgroundImageFix" result="effect1_dropShadow_28_118"/>
<feBlend mode="normal" in="SourceGraphic" in2="effect1_dropShadow_28_118" result="shape"/>
<feColorMatrix in="SourceAlpha" type="matrix" values="0 0 0 0 0 0 0 0 0 0 0 0 0 0 0 0 0 0 127 0" result="hardAlpha"/>
<feOffset dy="0.5"/>
<feGaussianBlur stdDeviation="0.5"/>
<feComposite in2="hardAlpha" operator="arithmetic" k2="-1" k3="1"/>
<feColorMatrix type="matrix" values="0 0 0 0 0.392157 0 0 0 0 0.454902 0 0 0 0 0.545098 0 0 0 1 0"/>
<feBlend mode="normal" in2="shape" result="effect2_innerShadow_28_118"/>
</filter>
<filter id="filter8_di_28_118" x="19.4346" y="36.8887" width="2.16211" height="2.01318" filterUnits="userSpaceOnUse" color-interpolation-filters="sRGB">
<feFlood flood-opacity="0" result="BackgroundImageFix"/>
<feColorMatrix in="SourceAlpha" type="matrix" values="0 0 0 0 0 0 0 0 0 0 0 0 0 0 0 0 0 0 127 0" result="hardAlpha"/>
<feOffset dy="0.5"/>
<feGaussianBlur stdDeviation="0.25"/>
<feComposite in2="hardAlpha" operator="out"/>
<feColorMatrix type="matrix" values="0 0 0 0 0.886275 0 0 0 0 0.909804 0 0 0 0 0.941176 0 0 0 0.2 0"/>
<feBlend mode="normal" in2="BackgroundImageFix" result="effect1_dropShadow_28_118"/>
<feBlend mode="normal" in="SourceGraphic" in2="effect1_dropShadow_28_118" result="shape"/>
<feColorMatrix in="SourceAlpha" type="matrix" values="0 0 0 0 0 0 0 0 0 0 0 0 0 0 0 0 0 0 127 0" result="hardAlpha"/>
<feOffset dy="0.5"/>
<feGaussianBlur stdDeviation="0.5"/>
<feComposite in2="hardAlpha" operator="arithmetic" k2="-1" k3="1"/>
<feColorMatrix type="matrix" values="0 0 0 0 0.392157 0 0 0 0 0.454902 0 0 0 0 0.545098 0 0 0 1 0"/>
<feBlend mode="normal" in2="shape" result="effect2_innerShadow_28_118"/>
</filter>
<filter id="filter9_di_28_118" x="44.6885" y="29.1191" width="2.0791" height="2.10107" filterUnits="userSpaceOnUse" color-interpolation-filters="sRGB">
<feFlood flood-opacity="0" result="BackgroundImageFix"/>
<feColorMatrix in="SourceAlpha" type="matrix" values="0 0 0 0 0 0 0 0 0 0 0 0 0 0 0 0 0 0 127 0" result="hardAlpha"/>
<feOffset dy="0.5"/>
<feGaussianBlur stdDeviation="0.25"/>
<feComposite in2="hardAlpha" operator="out"/>
<feColorMatrix type="matrix" values="0 0 0 0 0.886275 0 0 0 0 0.909804 0 0 0 0 0.941176 0 0 0 0.2 0"/>
<feBlend mode="normal" in2="BackgroundImageFix" result="effect1_dropShadow_28_118"/>
<feBlend mode="normal" in="SourceGraphic" in2="effect1_dropShadow_28_118" result="shape"/>
<feColorMatrix in="SourceAlpha" type="matrix" values="0 0 0 0 0 0 0 0 0 0 0 0 0 0 0 0 0 0 127 0" result="hardAlpha"/>
<feOffset dy="0.5"/>
<feGaussianBlur stdDeviation="0.5"/>
<feComposite in2="hardAlpha" operator="arithmetic" k2="-1" k3="1"/>
<feColorMatrix type="matrix" values="0 0 0 0 0.392157 0 0 0 0 0.454902 0 0 0 0 0.545098 0 0 0 1 0"/>
<feBlend mode="normal" in2="shape" result="effect2_innerShadow_28_118"/>
</filter>
<filter id="filter10_di_28_118" x="41.7231" y="40.2197" width="2.0791" height="2.10107" filterUnits="userSpaceOnUse" color-interpolation-filters="sRGB">
<feFlood flood-opacity="0" result="BackgroundImageFix"/>
<feColorMatrix in="SourceAlpha" type="matrix" values="0 0 0 0 0 0 0 0 0 0 0 0 0 0 0 0 0 0 127 0" result="hardAlpha"/>
<feOffset dy="0.5"/>
<feGaussianBlur stdDeviation="0.25"/>
<feComposite in2="hardAlpha" operator="out"/>
<feColorMatrix type="matrix" values="0 0 0 0 0.886275 0 0 0 0 0.909804 0 0 0 0 0.941176 0 0 0 0.2 0"/>
<feBlend mode="normal" in2="BackgroundImageFix" result="effect1_dropShadow_28_118"/>
<feBlend mode="normal" in="SourceGraphic" in2="effect1_dropShadow_28_118" result="shape"/>
<feColorMatrix in="SourceAlpha" type="matrix" values="0 0 0 0 0 0 0 0 0 0 0 0 0 0 0 0 0 0 127 0" result="hardAlpha"/>
<feOffset dy="0.5"/>
<feGaussianBlur stdDeviation="0.5"/>
<feComposite in2="hardAlpha" operator="arithmetic" k2="-1" k3="1"/>
<feColorMatrix type="matrix" values="0 0 0 0 0.392157 0 0 0 0 0.454902 0 0 0 0 0.545098 0 0 0 1 0"/>
<feBlend mode="normal" in2="shape" result="effect2_innerShadow_28_118"/>
</filter>
<filter id="filter11_di_28_118" x="32.647" y="20.1626" width="2.16162" height="2.01367" filterUnits="userSpaceOnUse" color-interpolation-filters="sRGB">
<feFlood flood-opacity="0" result="BackgroundImageFix"/>
<feColorMatrix in="SourceAlpha" type="matrix" values="0 0 0 0 0 0 0 0 0 0 0 0 0 0 0 0 0 0 127 0" result="hardAlpha"/>
<feOffset dy="0.5"/>
<feGaussianBlur stdDeviation="0.25"/>
<feComposite in2="hardAlpha" operator="out"/>
<feColorMatrix type="matrix" values="0 0 0 0 0.886275 0 0 0 0 0.909804 0 0 0 0 0.941176 0 0 0 0.7 0"/>
<feBlend mode="normal" in2="BackgroundImageFix" result="effect1_dropShadow_28_118"/>
<feBlend mode="normal" in="SourceGraphic" in2="effect1_dropShadow_28_118" result="shape"/>
<feColorMatrix in="SourceAlpha" type="matrix" values="0 0 0 0 0 0 0 0 0 0 0 0 0 0 0 0 0 0 127 0" result="hardAlpha"/>
<feOffset dy="0.5"/>
<feGaussianBlur stdDeviation="0.5"/>
<feComposite in2="hardAlpha" operator="arithmetic" k2="-1" k3="1"/>
<feColorMatrix type="matrix" values="0 0 0 0 0.392157 0 0 0 0 0.454902 0 0 0 0 0.545098 0 0 0 1 0"/>
<feBlend mode="normal" in2="shape" result="effect2_innerShadow_28_118"/>
</filter>
<filter id="filter12_di_28_118" x="28.6479" y="28.1646" width="2.16162" height="2.01367" filterUnits="userSpaceOnUse" color-interpolation-filters="sRGB">
<feFlood flood-opacity="0" result="BackgroundImageFix"/>
<feColorMatrix in="SourceAlpha" type="matrix" values="0 0 0 0 0 0 0 0 0 0 0 0 0 0 0 0 0 0 127 0" result="hardAlpha"/>
<feOffset dy="0.5"/>
<feGaussianBlur stdDeviation="0.25"/>
<feComposite in2="hardAlpha" operator="out"/>
<feColorMatrix type="matrix" values="0 0 0 0 0.886275 0 0 0 0 0.909804 0 0 0 0 0.941176 0 0 0 0.7 0"/>
<feBlend mode="normal" in2="BackgroundImageFix" result="effect1_dropShadow_28_118"/>
<feBlend mode="normal" in="SourceGraphic" in2="effect1_dropShadow_28_118" result="shape"/>
<feColorMatrix in="SourceAlpha" type="matrix" values="0 0 0 0 0 0 0 0 0 0 0 0 0 0 0 0 0 0 127 0" result="hardAlpha"/>
<feOffset dy="0.5"/>
<feGaussianBlur stdDeviation="0.5"/>
<feComposite in2="hardAlpha" operator="arithmetic" k2="-1" k3="1"/>
<feColorMatrix type="matrix" values="0 0 0 0 0.392157 0 0 0 0 0.454902 0 0 0 0 0.545098 0 0 0 1 0"/>
<feBlend mode="normal" in2="shape" result="effect2_innerShadow_28_118"/>
</filter>
<filter id="filter13_di_28_118" x="40.7349" y="33.0796" width="1.98779" height="2.18359" filterUnits="userSpaceOnUse" color-interpolation-filters="sRGB">
<feFlood flood-opacity="0" result="BackgroundImageFix"/>
<feColorMatrix in="SourceAlpha" type="matrix" values="0 0 0 0 0 0 0 0 0 0 0 0 0 0 0 0 0 0 127 0" result="hardAlpha"/>
<feOffset dy="0.5"/>
<feGaussianBlur stdDeviation="0.25"/>
<feComposite in2="hardAlpha" operator="out"/>
<feColorMatrix type="matrix" values="0 0 0 0 0.886275 0 0 0 0 0.909804 0 0 0 0 0.941176 0 0 0 0.4 0"/>
<feBlend mode="normal" in2="BackgroundImageFix" result="effect1_dropShadow_28_118"/>
<feBlend mode="normal" in="SourceGraphic" in2="effect1_dropShadow_28_118" result="shape"/>
<feColorMatrix in="SourceAlpha" type="matrix" values="0 0 0 0 0 0 0 0 0 0 0 0 0 0 0 0 0 0 127 0" result="hardAlpha"/>
<feOffset dy="0.5"/>
<feGaussianBlur stdDeviation="0.5"/>
<feComposite in2="hardAlpha" operator="arithmetic" k2="-1" k3="1"/>
<feColorMatrix type="matrix" values="0 0 0 0 0.392157 0 0 0 0 0.454902 0 0 0 0 0.545098 0 0 0 1 0"/>
<feBlend mode="normal" in2="shape" result="effect2_innerShadow_28_118"/>
</filter>
<filter id="filter14_di_28_118" x="30.5454" y="36.0386" width="1.98779" height="2.18359" filterUnits="userSpaceOnUse" color-interpolation-filters="sRGB">
<feFlood flood-opacity="0" result="BackgroundImageFix"/>
<feColorMatrix in="SourceAlpha" type="matrix" values="0 0 0 0 0 0 0 0 0 0 0 0 0 0 0 0 0 0 127 0" result="hardAlpha"/>
<feOffset dy="0.5"/>
<feGaussianBlur stdDeviation="0.25"/>
<feComposite in2="hardAlpha" operator="out"/>
<feColorMatrix type="matrix" values="0 0 0 0 0.886275 0 0 0 0 0.909804 0 0 0 0 0.941176 0 0 0 0.4 0"/>
<feBlend mode="normal" in2="BackgroundImageFix" result="effect1_dropShadow_28_118"/>
<feBlend mode="normal" in="SourceGraphic" in2="effect1_dropShadow_28_118" result="shape"/>
<feColorMatrix in="SourceAlpha" type="matrix" values="0 0 0 0 0 0 0 0 0 0 0 0 0 0 0 0 0 0 127 0" result="hardAlpha"/>
<feOffset dy="0.5"/>
<feGaussianBlur stdDeviation="0.5"/>
<feComposite in2="hardAlpha" operator="arithmetic" k2="-1" k3="1"/>
<feColorMatrix type="matrix" values="0 0 0 0 0.392157 0 0 0 0 0.454902 0 0 0 0 0.545098 0 0 0 1 0"/>
<feBlend mode="normal" in2="shape" result="effect2_innerShadow_28_118"/>
</filter>
<filter id="filter15_di_28_118" x="33.5454" y="45.0386" width="1.98779" height="2.18359" filterUnits="userSpaceOnUse" color-interpolation-filters="sRGB">
<feFlood flood-opacity="0" result="BackgroundImageFix"/>
<feColorMatrix in="SourceAlpha" type="matrix" values="0 0 0 0 0 0 0 0 0 0 0 0 0 0 0 0 0 0 127 0" result="hardAlpha"/>
<feOffset dy="0.5"/>
<feGaussianBlur stdDeviation="0.25"/>
<feComposite in2="hardAlpha" operator="out"/>
<feColorMatrix type="matrix" values="0 0 0 0 0.886275 0 0 0 0 0.909804 0 0 0 0 0.941176 0 0 0 0.2 0"/>
<feBlend mode="normal" in2="BackgroundImageFix" result="effect1_dropShadow_28_118"/>
<feBlend mode="normal" in="SourceGraphic" in2="effect1_dropShadow_28_118" result="shape"/>
<feColorMatrix in="SourceAlpha" type="matrix" values="0 0 0 0 0 0 0 0 0 0 0 0 0 0 0 0 0 0 127 0" result="hardAlpha"/>
<feOffset dy="0.5"/>
<feGaussianBlur stdDeviation="0.5"/>
<feComposite in2="hardAlpha" operator="arithmetic" k2="-1" k3="1"/>
<feColorMatrix type="matrix" values="0 0 0 0 0.392157 0 0 0 0 0.454902 0 0 0 0 0.545098 0 0 0 1 0"/>
<feBlend mode="normal" in2="shape" result="effect2_innerShadow_28_118"/>
</filter>
<linearGradient id="paint0_linear_28_118" x1="32" y1="15.9995" x2="32" y2="47.9995" gradientUnits="userSpaceOnUse">
<stop stop-color="#E2E8F0"/>
<stop offset="1" stop-color="#64748B"/>
</linearGradient>
<linearGradient id="paint1_linear_28_118" x1="31.9998" y1="18.666" x2="31.9998" y2="31.9993" gradientUnits="userSpaceOnUse">
<stop stop-color="#F1F5F9"/>
<stop offset="1" stop-color="#E2E8F0" stop-opacity="0"/>
</linearGradient>
</defs>
</svg>
