<svg width="64" height="64" viewBox="0 0 64 64" fill="none" xmlns="http://www.w3.org/2000/svg">
<g filter="url(#filter0_ii_28_234)">
<circle cx="23" cy="25.9995" r="16" fill="url(#paint0_linear_28_234)"/>
</g>
<g style="mix-blend-mode:multiply" opacity="0.6">
<path fill-rule="evenodd" clip-rule="evenodd" d="M13.2046 30.1915C13.0838 30.9851 12.969 30.876 12.7713 30.6882L12.7713 30.6882C12.5956 30.5214 12.3546 30.2924 11.9861 30.5793C11.7211 30.8751 11.3439 31.5718 11.5221 31.7674C12.5608 31.5768 12.556 32.7435 11.5044 32.5299C10.8382 32.8807 10.4099 32.6589 10.135 32.5166C9.90262 32.3962 9.77997 32.3327 9.71597 32.7205C9.80456 33.2478 10.2335 33.3439 10.5813 33.4219C10.9142 33.4965 11.1728 33.5545 10.9875 33.9579L10.9808 33.9904L10.9808 33.9905C10.9034 34.367 10.8454 34.6488 11.4354 34.7303C12.0613 34.6952 12.0309 35.26 12.002 35.7965C11.97 36.3899 11.9399 36.9488 12.8016 36.6234C14.215 36.5199 13.7559 37.3792 13.2826 38.2652C13.226 38.3711 13.1692 38.4774 13.1154 38.5825C9.39147 35.6529 7 31.1058 7 26.0001C7 20.463 9.81271 15.5828 14.0873 12.7104C14.2478 12.7442 14.4029 12.816 14.5451 12.9497L14.5467 12.953C14.5146 12.7405 14.5708 12.5256 14.6753 12.3336C15.0258 12.1196 15.3852 11.9187 15.7529 11.7317C15.8405 11.8168 15.8793 11.9821 15.8343 12.2496C15.9109 12.2833 15.9988 12.2838 16.0801 12.2842H16.0801C16.2523 12.2851 16.3946 12.2858 16.3368 12.6029C16.3123 12.8906 16.0505 12.9505 15.8068 13.0062L15.8068 13.0062C15.5076 13.0747 15.2358 13.1369 15.465 13.607C15.441 13.6963 15.4119 13.7913 15.3818 13.8898C15.1921 14.5093 14.9589 15.2712 15.6625 15.671C16.619 13.1558 18.5864 13.8867 19.6738 14.2906L19.6739 14.2906C20.293 14.5206 20.6268 14.6446 20.3263 14.0031C18.403 13.3359 19.4144 11.3984 21.1466 12.2135C20.8719 11.8098 20.4573 11.7317 20.0532 11.6555L20.0531 11.6555L20.053 11.6555C19.6331 11.5764 19.2244 11.4995 18.9954 11.0615C19.0051 10.9239 19.1502 10.6848 19.327 10.4237C19.917 10.2851 20.5195 10.1792 21.1326 10.1079C21.3014 10.7843 21.6143 11.3427 22.028 11.2751C22.2299 11.3206 22.4813 11.3161 22.7345 11.3115L22.7346 11.3115C23.3411 11.3006 23.9581 11.2895 23.9321 11.9654C24.5673 11.6877 24.6604 12.066 24.751 12.4338L24.751 12.4338C24.781 12.5559 24.8108 12.6768 24.86 12.7722C26.8703 13.8454 26.3149 14.0273 25.6982 14.2292L25.6982 14.2293L25.6981 14.2293C25.262 14.3721 24.7952 14.525 25.1843 15.0104C24.9348 15.3959 24.5096 15.1614 24.0772 14.9228C23.5971 14.6579 23.1081 14.3882 22.8404 14.9562C22.7274 15.2449 23.1401 15.5549 23.6062 15.905L23.6062 15.905C24.1669 16.3262 24.8048 16.8053 24.6979 17.3752C24.2974 17.969 24.6718 18.3312 25.0718 18.7182C25.4512 19.0852 25.8536 19.4745 25.6402 20.1047C25.3705 20.8212 26.4638 21.1729 26.6806 20.343C26.8299 19.7317 27.2938 19.9552 27.7064 20.2263C27.0225 19.6544 26.5778 17.3554 27.8959 18.3661C27.9755 18.8431 28.3427 19.0569 28.6947 19.2619C29.1019 19.4989 29.4889 19.7242 29.3873 20.3315C28.7383 21.4856 31.0515 22.7971 33.1548 23.9896C34.5166 24.7617 35.7908 25.4841 36.1157 26.0815C35.9776 27.0346 36.6037 26.7405 36.4143 25.9829C36.4312 25.8839 36.3779 25.7734 36.3271 25.6682L36.3271 25.6682L36.327 25.6681C36.2473 25.5028 36.1738 25.3506 36.3886 25.2763C36.6396 25.1888 36.6994 25.3893 36.7624 25.6001L36.7624 25.6001L36.7625 25.6001C36.7942 25.7062 36.8266 25.815 36.8847 25.8909C37.0469 24.1654 38.6876 27.056 37.0131 27.3633C38.3201 28.3696 38.0473 29.5892 37.7682 30.8371C37.6302 31.4543 37.4906 32.0784 37.5398 32.6871C37.2788 33.2539 36.9855 33.8028 36.6624 34.3315C36.6152 34.2294 36.6045 34.0724 36.6503 33.8479C36.6608 33.5728 36.7861 33.1134 36.9258 32.6008L36.9258 32.6008C37.2754 31.3185 37.7156 29.7038 36.6776 29.8118C36.5044 30.5331 36.5027 31.3139 36.501 32.109V32.1091C36.4988 33.1281 36.4965 34.1707 36.1332 35.1415C35.585 35.9275 34.9681 36.6621 34.2911 37.3364C34.0849 37.2366 33.9509 36.8562 33.7959 36.4165C33.6538 36.0133 33.4941 35.5602 33.2452 35.2282C33.9853 35.3433 34.5504 34.6843 34.9534 33.4025C34.4878 33.5539 34.1654 33.2822 33.9161 33.0722C33.6136 32.8172 33.4188 32.6531 33.2067 33.4469C32.1615 32.4773 30.6877 30.4133 31.0602 28.8571C31.552 27.8534 31.0283 27.9615 30.3563 28.1003C29.9709 28.1798 29.5366 28.2695 29.2172 28.1652C27.5074 27.7034 27.6872 29.7576 27.8477 30.8619C27.6225 31.4105 27.8916 31.7552 28.1594 32.0983L28.1594 32.0984L28.1596 32.0986L28.1596 32.0986L28.1596 32.0986C28.3041 32.2838 28.4482 32.4684 28.514 32.6844C28.7764 32.7397 29.023 32.7074 29.2599 32.6763L29.2601 32.6763C29.7551 32.6114 30.208 32.552 30.6749 33.3088C31.6868 33.6742 31.472 34.3596 31.2482 35.0737C31.0381 35.7439 30.82 36.4394 31.6012 36.9192C32.2097 37.6883 31.6879 38.4919 30.8756 38.7942C30.9617 37.1506 30.9091 37.163 30.5516 37.2472C30.3096 37.3042 29.928 37.3941 29.3552 37.0261C29.5864 37.9151 28.7901 38.0811 28.3518 37.5979C28.4339 37.3158 28.3668 37.0854 28.3003 36.8571L28.3003 36.8571L28.3003 36.8571C28.2471 36.6745 28.1943 36.4934 28.2186 36.2882C27.8493 36.7877 27.4415 36.3227 27.5266 35.81C27.4034 35.3392 27.8389 34.9379 28.2135 34.5927L28.2136 34.5927C28.6732 34.1692 29.0413 33.8302 28.1736 33.5504C27.8514 33.1716 27.5952 33.6502 27.3336 34.139C27.1389 34.5027 26.9412 34.872 26.7111 34.8979C26.502 34.6928 26.6102 34.4393 26.7264 34.1674L26.7264 34.1674C26.8448 33.8903 26.9713 33.5941 26.7785 33.3105C26.7802 32.5602 26.1452 32.8146 25.6223 33.0242C25.1477 33.2144 24.7654 33.3677 25.035 32.6992C25.9068 31.9942 24.9804 31.3549 24.7364 32.5726C24.2225 32.1732 24.631 31.4989 24.9885 30.9089C25.3971 30.2345 25.739 29.6703 24.5598 29.7527C24.2566 30.0755 24.1384 29.954 23.9811 29.7922L23.9811 29.7922C23.891 29.6995 23.7881 29.5936 23.6302 29.5505C22.1018 29.7161 21.9228 28.4309 21.7326 27.0656C21.566 25.8696 21.3908 24.6122 20.2926 24.2147C19.8857 23.7865 19.96 24.0975 20.0451 24.4538C20.0916 24.6486 20.1414 24.8571 20.1176 24.9657C18.9357 24.6947 19.0109 25.1913 19.0649 25.5479C19.1161 25.8855 19.1482 26.0975 18.0771 25.4143C18.0979 26.065 18.0353 28.6122 17.2181 27.4816C16.7802 26.8276 16.0962 26.5978 15.4401 26.3775C14.7494 26.1455 14.0897 25.9239 13.7809 25.2286C13.0376 24.5349 13.3309 24.069 13.6854 23.5058L13.6854 23.5058L13.6855 23.5056L13.6855 23.5056C13.808 23.311 13.9377 23.1049 14.0346 22.8737C13.9297 21.8614 14.3461 22.1472 14.8174 22.4707L14.8175 22.4708C15.0171 22.6078 15.2265 22.7516 15.4104 22.8064C15.2781 22.5731 15.1508 22.372 15.0447 22.2044C14.623 21.5382 14.5368 21.4019 15.8054 21.8877C15.4651 21.403 15.6483 20.9997 15.8337 20.5916L15.8337 20.5916L15.8337 20.5915C15.9317 20.3757 16.0304 20.1586 16.0526 19.9273C16.0662 19.7867 15.9964 19.6438 15.9271 19.5022L15.9271 19.5021C15.8004 19.2432 15.6758 18.9883 16.0671 18.7588C15.7765 18.3957 14.8871 18.3381 14.7297 18.9741C14.627 20.0949 13.3844 19.9766 13.2575 19.1171C14.102 18.8985 14.6623 18.6306 14.4247 17.5017C15.16 16.049 10.6359 17.5921 10.7483 18.3053C10.7952 18.5609 11.0384 18.5801 11.2657 18.5981L11.2659 18.5981L11.2659 18.5981C11.5048 18.6169 11.7262 18.6344 11.6842 18.9232C11.465 19.1334 11.1791 19.0806 10.8973 19.0285C10.4939 18.9539 10.0987 18.8808 9.91826 19.5821C9.51298 20.7106 10.451 20.8031 11.2556 20.8825L11.2556 20.8825C11.761 20.9323 12.2137 20.977 12.2477 21.2698C12.273 21.5234 12.4538 21.4712 12.6573 21.4126L12.6573 21.4126C12.8166 21.3667 12.9897 21.3168 13.1131 21.4062C12.7984 21.9272 11.1304 23.7118 10.8526 23.8302C10.9722 24.093 11.5535 24.4612 12.1566 24.8433L12.1567 24.8433C13.2465 25.5337 14.4077 26.2692 13.0456 26.5104C12.567 26.5297 12.6221 26.7264 12.6719 26.9046C12.7366 27.1357 12.7925 27.3356 11.6618 27.0757C11.6587 27.4734 12.0075 27.4918 12.2902 27.5067C12.6033 27.5232 12.8354 27.5354 12.4195 28.0535C11.7725 28.9936 12.2132 29.1076 12.6779 29.2278L12.678 29.2278C13.1012 29.3372 13.5443 29.4518 13.2046 30.1997V30.1915ZM32.2376 20.1042L32.2377 20.1046C32.2947 20.2427 32.3525 20.3829 32.3926 20.5283C30.799 20.171 36.0194 25.5273 36.1061 19.8615C36.159 19.3291 35.7095 18.3579 35.4222 17.8419C34.9163 17.8054 34.5282 17.415 34.1584 17.0431L34.1583 17.043C33.7628 16.6452 33.3882 16.2685 32.9129 16.3678C32.3237 16.9183 30.4373 18.7999 32.0716 19.1828C31.9899 19.5039 32.1118 19.7992 32.2376 20.1042ZM13.5856 29.4457L13.5856 29.4456C13.7058 29.0364 13.8154 28.6632 14.0266 29.217C14.0992 29.4844 14.3132 29.4377 14.6028 29.3745L14.6029 29.3745L14.6029 29.3745C15.0749 29.2716 15.7478 29.1248 16.3368 30.2227C16.1974 30.3339 16.0459 30.4312 15.8944 30.5284L15.8943 30.5285C15.5064 30.7775 15.1183 31.0266 14.9336 31.511C14.6751 32.0928 13.3298 31.5784 13.3651 31.1594C13.4818 30.9097 13.3939 30.7145 13.3149 30.5391L13.3148 30.5391C13.2363 30.3647 13.1665 30.2099 13.3153 30.0403C13.4288 29.9797 13.5093 29.7054 13.5856 29.4457Z" fill="#94A3B8"/>
</g>
<g filter="url(#filter1_f_28_234)">
<ellipse cx="22.9998" cy="19.3327" rx="9.33333" ry="6.66667" fill="url(#paint1_linear_28_234)" style="mix-blend-mode:soft-light"/>
</g>
<g filter="url(#filter2_di_28_234)">
<ellipse cx="30.4998" cy="19.0001" rx="1.5" ry="2" transform="rotate(-22.1932 30.4998 19.0001)" fill="#94A3B8"/>
</g>
<g filter="url(#filter3_di_28_234)">
<ellipse cx="26.7553" cy="25.9184" rx="1.87701" ry="1.30625" transform="rotate(-22.1932 26.7553 25.9184)" fill="#64748B"/>
</g>
<g filter="url(#filter4_di_28_234)">
<ellipse cx="17.0198" cy="16.8763" rx="1.49447" ry="1.5255" transform="rotate(15.8877 17.0198 16.8763)" fill="#94A3B8"/>
</g>
<g filter="url(#filter5_di_28_234)">
<ellipse cx="19.0298" cy="38.0545" rx="1.56468" ry="1.60711" transform="rotate(-20.5835 19.0298 38.0545)" fill="#475569"/>
</g>
<g filter="url(#filter6_di_28_234)">
<ellipse cx="26.9518" cy="33.0825" rx="2.40196" ry="2" transform="rotate(-20.5835 26.9518 33.0825)" fill="#475569"/>
</g>
<g filter="url(#filter7_di_28_234)">
<ellipse cx="16.5367" cy="28.5951" rx="1.23333" ry="1.02693" transform="rotate(56.5561 16.5367 28.5951)" fill="#64748B"/>
</g>
<g filter="url(#filter8_di_28_234)">
<ellipse cx="11.5155" cy="31.3951" rx="0.5923" ry="0.49318" transform="rotate(-20.5835 11.5155 31.3951)" fill="#94A3B8"/>
</g>
<g filter="url(#filter9_di_28_234)">
<ellipse cx="36.7281" cy="23.6697" rx="0.5923" ry="0.49318" transform="rotate(48.1814 36.7281 23.6697)" fill="#94A3B8"/>
</g>
<g filter="url(#filter10_di_28_234)">
<ellipse cx="33.7627" cy="34.7703" rx="0.5923" ry="0.49318" transform="rotate(48.1814 33.7627 34.7703)" fill="#64748B"/>
</g>
<g filter="url(#filter11_di_28_234)">
<ellipse cx="24.7278" cy="14.6696" rx="0.5923" ry="0.49318" transform="rotate(20.8278 24.7278 14.6696)" fill="#94A3B8"/>
</g>
<g filter="url(#filter12_di_28_234)">
<ellipse cx="20.7288" cy="22.6716" rx="0.5923" ry="0.49318" transform="rotate(20.8278 20.7288 22.6716)" fill="#94A3B8"/>
</g>
<g filter="url(#filter13_di_28_234)">
<ellipse cx="32.7289" cy="27.6714" rx="0.5923" ry="0.49318" transform="rotate(94.6584 32.7289 27.6714)" fill="#94A3B8"/>
</g>
<g filter="url(#filter14_di_28_234)">
<ellipse cx="22.5394" cy="30.6304" rx="0.5923" ry="0.49318" transform="rotate(94.6584 22.5394 30.6304)" fill="#94A3B8"/>
</g>
<g filter="url(#filter15_di_28_234)">
<ellipse cx="25.5394" cy="39.6304" rx="0.5923" ry="0.49318" transform="rotate(94.6584 25.5394 39.6304)" fill="#94A3B8"/>
</g>
<g filter="url(#filter16_d_28_234)">
<path fill-rule="evenodd" clip-rule="evenodd" d="M53 29.5121C53 29.5081 53 29.504 53 29.5C53 22.5964 47.4036 17 40.5 17C35.1094 17 30.5158 20.4122 28.7613 25.1945C28.1946 25.0672 27.6051 25 27 25C22.5817 25 19 28.5817 19 33C19 33.0236 19.0001 33.0473 19.0003 33.0708C15.6079 33.5559 13 36.4734 13 40C13 43.866 16.134 47 20 47H50C54.9706 47 59 42.9706 59 38C59 34.0813 56.4956 30.7476 53 29.5121Z" fill="#64748B"/>
</g>
<g filter="url(#filter17_ii_28_234)">
<path fill-rule="evenodd" clip-rule="evenodd" d="M59 38C59 42.9706 54.9706 47 50 47H20C16.134 47 13 43.866 13 40C13 36.134 16.134 33 20 33C22.7924 33 25.2029 34.6351 26.3264 37H41.0549C41.5524 32.5 45.3674 29 50 29C54.9706 29 59 33.0294 59 38Z" fill="#F1F5F9"/>
</g>
<g filter="url(#filter18_f_28_234)">
<circle cx="20" cy="40" r="5" fill="url(#paint2_linear_28_234)" style="mix-blend-mode:soft-light"/>
</g>
<g filter="url(#filter19_i_28_234)">
<circle cx="27" cy="33" r="8" fill="#F1F5F9"/>
</g>
<g filter="url(#filter20_f_28_234)">
<ellipse cx="27" cy="32" rx="6" ry="5" fill="url(#paint3_linear_28_234)" style="mix-blend-mode:soft-light"/>
</g>
<g filter="url(#filter21_f_28_234)">
<circle cx="51" cy="37" r="5" fill="url(#paint4_linear_28_234)" style="mix-blend-mode:soft-light"/>
</g>
<g filter="url(#filter22_i_28_234)">
<circle cx="40.5" cy="29.5" r="12.5" fill="#F1F5F9"/>
</g>
<g filter="url(#filter23_f_28_234)">
<ellipse cx="40" cy="24" rx="7" ry="5" fill="url(#paint5_linear_28_234)" style="mix-blend-mode:soft-light"/>
</g>
<g filter="url(#filter24_i_28_234)">
<ellipse cx="36" cy="37.5" rx="9" ry="6.5" fill="url(#paint6_linear_28_234)"/>
</g>
<g filter="url(#filter25_f_28_234)">
<ellipse cx="36" cy="37.5" rx="7" ry="4.5" fill="url(#paint7_linear_28_234)" style="mix-blend-mode:soft-light"/>
</g>
<path fill-rule="evenodd" clip-rule="evenodd" d="M53 29.5121C53 29.5081 53 29.504 53 29.5C53 22.5964 47.4036 17 40.5 17C35.1094 17 30.5158 20.4122 28.7613 25.1945C28.1946 25.0672 27.6051 25 27 25C22.5817 25 19 28.5817 19 33C19 33.0236 19.0001 33.0473 19.0003 33.0708C15.6079 33.5559 13 36.4734 13 40C13 43.866 16.134 47 20 47H50C54.9706 47 59 42.9706 59 38C59 34.0813 56.4956 30.7476 53 29.5121Z" fill="#93C5FD" style="mix-blend-mode:color"/>
<path fill-rule="evenodd" clip-rule="evenodd" d="M53 29.5121C53 29.5081 53 29.504 53 29.5C53 22.5964 47.4036 17 40.5 17C35.1094 17 30.5158 20.4122 28.7613 25.1945C28.1946 25.0672 27.6051 25 27 25C22.5817 25 19 28.5817 19 33C19 33.0236 19.0001 33.0473 19.0003 33.0708C15.6079 33.5559 13 36.4734 13 40C13 43.866 16.134 47 20 47H50C54.9706 47 59 42.9706 59 38C59 34.0813 56.4956 30.7476 53 29.5121Z" fill="#3730A3" style="mix-blend-mode:color"/>
<path fill-rule="evenodd" clip-rule="evenodd" d="M53 29.5121C53 29.5081 53 29.504 53 29.5C53 22.5964 47.4036 17 40.5 17C35.1094 17 30.5158 20.4122 28.7613 25.1945C28.1946 25.0672 27.6051 25 27 25C22.5817 25 19 28.5817 19 33C19 33.0236 19.0001 33.0473 19.0003 33.0708C15.6079 33.5559 13 36.4734 13 40C13 43.866 16.134 47 20 47H50C54.9706 47 59 42.9706 59 38C59 34.0813 56.4956 30.7476 53 29.5121Z" fill="#4338CA" fill-opacity="0.075" style="mix-blend-mode:multiply"/>
<defs>
<filter id="filter0_ii_28_234" x="7" y="8.99951" width="32" height="34" filterUnits="userSpaceOnUse" color-interpolation-filters="sRGB">
<feFlood flood-opacity="0" result="BackgroundImageFix"/>
<feBlend mode="normal" in="SourceGraphic" in2="BackgroundImageFix" result="shape"/>
<feColorMatrix in="SourceAlpha" type="matrix" values="0 0 0 0 0 0 0 0 0 0 0 0 0 0 0 0 0 0 127 0" result="hardAlpha"/>
<feMorphology radius="1" operator="erode" in="SourceAlpha" result="effect1_innerShadow_28_234"/>
<feOffset dy="-1"/>
<feGaussianBlur stdDeviation="3"/>
<feComposite in2="hardAlpha" operator="arithmetic" k2="-1" k3="1"/>
<feColorMatrix type="matrix" values="0 0 0 0 0.278431 0 0 0 0 0.333333 0 0 0 0 0.411765 0 0 0 1 0"/>
<feBlend mode="normal" in2="shape" result="effect1_innerShadow_28_234"/>
<feColorMatrix in="SourceAlpha" type="matrix" values="0 0 0 0 0 0 0 0 0 0 0 0 0 0 0 0 0 0 127 0" result="hardAlpha"/>
<feOffset dy="1"/>
<feGaussianBlur stdDeviation="1"/>
<feComposite in2="hardAlpha" operator="arithmetic" k2="-1" k3="1"/>
<feColorMatrix type="matrix" values="0 0 0 0 0.796078 0 0 0 0 0.835294 0 0 0 0 0.882353 0 0 0 1 0"/>
<feBlend mode="normal" in2="effect1_innerShadow_28_234" result="effect2_innerShadow_28_234"/>
</filter>
<filter id="filter1_f_28_234" x="10.9998" y="9.99935" width="23.9998" height="18.6668" filterUnits="userSpaceOnUse" color-interpolation-filters="sRGB">
<feFlood flood-opacity="0" result="BackgroundImageFix"/>
<feBlend mode="normal" in="SourceGraphic" in2="BackgroundImageFix" result="shape"/>
<feGaussianBlur stdDeviation="1.33333" result="effect1_foregroundBlur_28_234"/>
</filter>
<filter id="filter2_di_28_234" x="28.4185" y="17.063" width="4.1626" height="4.87402" filterUnits="userSpaceOnUse" color-interpolation-filters="sRGB">
<feFlood flood-opacity="0" result="BackgroundImageFix"/>
<feColorMatrix in="SourceAlpha" type="matrix" values="0 0 0 0 0 0 0 0 0 0 0 0 0 0 0 0 0 0 127 0" result="hardAlpha"/>
<feOffset dy="0.5"/>
<feGaussianBlur stdDeviation="0.25"/>
<feComposite in2="hardAlpha" operator="out"/>
<feColorMatrix type="matrix" values="0 0 0 0 0.886275 0 0 0 0 0.909804 0 0 0 0 0.941176 0 0 0 0.7 0"/>
<feBlend mode="normal" in2="BackgroundImageFix" result="effect1_dropShadow_28_234"/>
<feBlend mode="normal" in="SourceGraphic" in2="effect1_dropShadow_28_234" result="shape"/>
<feColorMatrix in="SourceAlpha" type="matrix" values="0 0 0 0 0 0 0 0 0 0 0 0 0 0 0 0 0 0 127 0" result="hardAlpha"/>
<feOffset dy="0.5"/>
<feGaussianBlur stdDeviation="0.5"/>
<feComposite in2="hardAlpha" operator="arithmetic" k2="-1" k3="1"/>
<feColorMatrix type="matrix" values="0 0 0 0 0.392157 0 0 0 0 0.454902 0 0 0 0 0.545098 0 0 0 1 0"/>
<feBlend mode="normal" in2="shape" result="effect2_innerShadow_28_234"/>
</filter>
<filter id="filter3_di_28_234" x="24.4482" y="24.5161" width="4.61426" height="3.80469" filterUnits="userSpaceOnUse" color-interpolation-filters="sRGB">
<feFlood flood-opacity="0" result="BackgroundImageFix"/>
<feColorMatrix in="SourceAlpha" type="matrix" values="0 0 0 0 0 0 0 0 0 0 0 0 0 0 0 0 0 0 127 0" result="hardAlpha"/>
<feOffset dy="0.5"/>
<feGaussianBlur stdDeviation="0.25"/>
<feComposite in2="hardAlpha" operator="out"/>
<feColorMatrix type="matrix" values="0 0 0 0 0.886275 0 0 0 0 0.909804 0 0 0 0 0.941176 0 0 0 0.7 0"/>
<feBlend mode="normal" in2="BackgroundImageFix" result="effect1_dropShadow_28_234"/>
<feBlend mode="normal" in="SourceGraphic" in2="effect1_dropShadow_28_234" result="shape"/>
<feColorMatrix in="SourceAlpha" type="matrix" values="0 0 0 0 0 0 0 0 0 0 0 0 0 0 0 0 0 0 127 0" result="hardAlpha"/>
<feOffset dy="0.5"/>
<feGaussianBlur stdDeviation="0.5"/>
<feComposite in2="hardAlpha" operator="arithmetic" k2="-1" k3="1"/>
<feColorMatrix type="matrix" values="0 0 0 0 0.392157 0 0 0 0 0.454902 0 0 0 0 0.545098 0 0 0 1 0"/>
<feBlend mode="normal" in2="shape" result="effect2_innerShadow_28_234"/>
</filter>
<filter id="filter4_di_28_234" x="15.0225" y="15.3525" width="3.99463" height="4.04736" filterUnits="userSpaceOnUse" color-interpolation-filters="sRGB">
<feFlood flood-opacity="0" result="BackgroundImageFix"/>
<feColorMatrix in="SourceAlpha" type="matrix" values="0 0 0 0 0 0 0 0 0 0 0 0 0 0 0 0 0 0 127 0" result="hardAlpha"/>
<feOffset dy="0.5"/>
<feGaussianBlur stdDeviation="0.25"/>
<feComposite in2="hardAlpha" operator="out"/>
<feColorMatrix type="matrix" values="0 0 0 0 0.886275 0 0 0 0 0.909804 0 0 0 0 0.941176 0 0 0 0.7 0"/>
<feBlend mode="normal" in2="BackgroundImageFix" result="effect1_dropShadow_28_234"/>
<feBlend mode="normal" in="SourceGraphic" in2="effect1_dropShadow_28_234" result="shape"/>
<feColorMatrix in="SourceAlpha" type="matrix" values="0 0 0 0 0 0 0 0 0 0 0 0 0 0 0 0 0 0 127 0" result="hardAlpha"/>
<feOffset dy="0.5"/>
<feGaussianBlur stdDeviation="0.5"/>
<feComposite in2="hardAlpha" operator="arithmetic" k2="-1" k3="1"/>
<feColorMatrix type="matrix" values="0 0 0 0 0.392157 0 0 0 0 0.454902 0 0 0 0 0.545098 0 0 0 1 0"/>
<feBlend mode="normal" in2="shape" result="effect2_innerShadow_28_234"/>
</filter>
<filter id="filter5_di_28_234" x="16.9595" y="36.4521" width="4.14062" height="4.20459" filterUnits="userSpaceOnUse" color-interpolation-filters="sRGB">
<feFlood flood-opacity="0" result="BackgroundImageFix"/>
<feColorMatrix in="SourceAlpha" type="matrix" values="0 0 0 0 0 0 0 0 0 0 0 0 0 0 0 0 0 0 127 0" result="hardAlpha"/>
<feOffset dy="0.5"/>
<feGaussianBlur stdDeviation="0.25"/>
<feComposite in2="hardAlpha" operator="out"/>
<feColorMatrix type="matrix" values="0 0 0 0 0.886275 0 0 0 0 0.909804 0 0 0 0 0.941176 0 0 0 0.15 0"/>
<feBlend mode="normal" in2="BackgroundImageFix" result="effect1_dropShadow_28_234"/>
<feBlend mode="normal" in="SourceGraphic" in2="effect1_dropShadow_28_234" result="shape"/>
<feColorMatrix in="SourceAlpha" type="matrix" values="0 0 0 0 0 0 0 0 0 0 0 0 0 0 0 0 0 0 127 0" result="hardAlpha"/>
<feOffset dy="0.5"/>
<feGaussianBlur stdDeviation="0.5"/>
<feComposite in2="hardAlpha" operator="arithmetic" k2="-1" k3="1"/>
<feColorMatrix type="matrix" values="0 0 0 0 0.392157 0 0 0 0 0.454902 0 0 0 0 0.545098 0 0 0 1 0"/>
<feBlend mode="normal" in2="shape" result="effect2_innerShadow_28_234"/>
</filter>
<filter id="filter6_di_28_234" x="24.0952" y="31.0283" width="5.71338" height="5.10889" filterUnits="userSpaceOnUse" color-interpolation-filters="sRGB">
<feFlood flood-opacity="0" result="BackgroundImageFix"/>
<feColorMatrix in="SourceAlpha" type="matrix" values="0 0 0 0 0 0 0 0 0 0 0 0 0 0 0 0 0 0 127 0" result="hardAlpha"/>
<feOffset dy="0.5"/>
<feGaussianBlur stdDeviation="0.25"/>
<feComposite in2="hardAlpha" operator="out"/>
<feColorMatrix type="matrix" values="0 0 0 0 0.886275 0 0 0 0 0.909804 0 0 0 0 0.941176 0 0 0 0.3 0"/>
<feBlend mode="normal" in2="BackgroundImageFix" result="effect1_dropShadow_28_234"/>
<feBlend mode="normal" in="SourceGraphic" in2="effect1_dropShadow_28_234" result="shape"/>
<feColorMatrix in="SourceAlpha" type="matrix" values="0 0 0 0 0 0 0 0 0 0 0 0 0 0 0 0 0 0 127 0" result="hardAlpha"/>
<feOffset dy="0.5"/>
<feGaussianBlur stdDeviation="0.5"/>
<feComposite in2="hardAlpha" operator="arithmetic" k2="-1" k3="1"/>
<feColorMatrix type="matrix" values="0 0 0 0 0.392157 0 0 0 0 0.454902 0 0 0 0 0.545098 0 0 0 1 0"/>
<feBlend mode="normal" in2="shape" result="effect2_innerShadow_28_234"/>
</filter>
<filter id="filter7_di_28_234" x="14.9429" y="27.4204" width="3.1875" height="3.34961" filterUnits="userSpaceOnUse" color-interpolation-filters="sRGB">
<feFlood flood-opacity="0" result="BackgroundImageFix"/>
<feColorMatrix in="SourceAlpha" type="matrix" values="0 0 0 0 0 0 0 0 0 0 0 0 0 0 0 0 0 0 127 0" result="hardAlpha"/>
<feOffset dy="0.5"/>
<feGaussianBlur stdDeviation="0.25"/>
<feComposite in2="hardAlpha" operator="out"/>
<feColorMatrix type="matrix" values="0 0 0 0 0.886275 0 0 0 0 0.909804 0 0 0 0 0.941176 0 0 0 0.7 0"/>
<feBlend mode="normal" in2="BackgroundImageFix" result="effect1_dropShadow_28_234"/>
<feBlend mode="normal" in="SourceGraphic" in2="effect1_dropShadow_28_234" result="shape"/>
<feColorMatrix in="SourceAlpha" type="matrix" values="0 0 0 0 0 0 0 0 0 0 0 0 0 0 0 0 0 0 127 0" result="hardAlpha"/>
<feOffset dy="0.5"/>
<feGaussianBlur stdDeviation="0.5"/>
<feComposite in2="hardAlpha" operator="arithmetic" k2="-1" k3="1"/>
<feColorMatrix type="matrix" values="0 0 0 0 0.392157 0 0 0 0 0.454902 0 0 0 0 0.545098 0 0 0 1 0"/>
<feBlend mode="normal" in2="shape" result="effect2_innerShadow_28_234"/>
</filter>
<filter id="filter8_di_28_234" x="10.4346" y="30.8887" width="2.16211" height="2.01318" filterUnits="userSpaceOnUse" color-interpolation-filters="sRGB">
<feFlood flood-opacity="0" result="BackgroundImageFix"/>
<feColorMatrix in="SourceAlpha" type="matrix" values="0 0 0 0 0 0 0 0 0 0 0 0 0 0 0 0 0 0 127 0" result="hardAlpha"/>
<feOffset dy="0.5"/>
<feGaussianBlur stdDeviation="0.25"/>
<feComposite in2="hardAlpha" operator="out"/>
<feColorMatrix type="matrix" values="0 0 0 0 0.886275 0 0 0 0 0.909804 0 0 0 0 0.941176 0 0 0 0.2 0"/>
<feBlend mode="normal" in2="BackgroundImageFix" result="effect1_dropShadow_28_234"/>
<feBlend mode="normal" in="SourceGraphic" in2="effect1_dropShadow_28_234" result="shape"/>
<feColorMatrix in="SourceAlpha" type="matrix" values="0 0 0 0 0 0 0 0 0 0 0 0 0 0 0 0 0 0 127 0" result="hardAlpha"/>
<feOffset dy="0.5"/>
<feGaussianBlur stdDeviation="0.5"/>
<feComposite in2="hardAlpha" operator="arithmetic" k2="-1" k3="1"/>
<feColorMatrix type="matrix" values="0 0 0 0 0.392157 0 0 0 0 0.454902 0 0 0 0 0.545098 0 0 0 1 0"/>
<feBlend mode="normal" in2="shape" result="effect2_innerShadow_28_234"/>
</filter>
<filter id="filter9_di_28_234" x="35.6885" y="23.1191" width="2.0791" height="2.10107" filterUnits="userSpaceOnUse" color-interpolation-filters="sRGB">
<feFlood flood-opacity="0" result="BackgroundImageFix"/>
<feColorMatrix in="SourceAlpha" type="matrix" values="0 0 0 0 0 0 0 0 0 0 0 0 0 0 0 0 0 0 127 0" result="hardAlpha"/>
<feOffset dy="0.5"/>
<feGaussianBlur stdDeviation="0.25"/>
<feComposite in2="hardAlpha" operator="out"/>
<feColorMatrix type="matrix" values="0 0 0 0 0.886275 0 0 0 0 0.909804 0 0 0 0 0.941176 0 0 0 0.2 0"/>
<feBlend mode="normal" in2="BackgroundImageFix" result="effect1_dropShadow_28_234"/>
<feBlend mode="normal" in="SourceGraphic" in2="effect1_dropShadow_28_234" result="shape"/>
<feColorMatrix in="SourceAlpha" type="matrix" values="0 0 0 0 0 0 0 0 0 0 0 0 0 0 0 0 0 0 127 0" result="hardAlpha"/>
<feOffset dy="0.5"/>
<feGaussianBlur stdDeviation="0.5"/>
<feComposite in2="hardAlpha" operator="arithmetic" k2="-1" k3="1"/>
<feColorMatrix type="matrix" values="0 0 0 0 0.392157 0 0 0 0 0.454902 0 0 0 0 0.545098 0 0 0 1 0"/>
<feBlend mode="normal" in2="shape" result="effect2_innerShadow_28_234"/>
</filter>
<filter id="filter10_di_28_234" x="32.7231" y="34.2197" width="2.0791" height="2.10107" filterUnits="userSpaceOnUse" color-interpolation-filters="sRGB">
<feFlood flood-opacity="0" result="BackgroundImageFix"/>
<feColorMatrix in="SourceAlpha" type="matrix" values="0 0 0 0 0 0 0 0 0 0 0 0 0 0 0 0 0 0 127 0" result="hardAlpha"/>
<feOffset dy="0.5"/>
<feGaussianBlur stdDeviation="0.25"/>
<feComposite in2="hardAlpha" operator="out"/>
<feColorMatrix type="matrix" values="0 0 0 0 0.886275 0 0 0 0 0.909804 0 0 0 0 0.941176 0 0 0 0.2 0"/>
<feBlend mode="normal" in2="BackgroundImageFix" result="effect1_dropShadow_28_234"/>
<feBlend mode="normal" in="SourceGraphic" in2="effect1_dropShadow_28_234" result="shape"/>
<feColorMatrix in="SourceAlpha" type="matrix" values="0 0 0 0 0 0 0 0 0 0 0 0 0 0 0 0 0 0 127 0" result="hardAlpha"/>
<feOffset dy="0.5"/>
<feGaussianBlur stdDeviation="0.5"/>
<feComposite in2="hardAlpha" operator="arithmetic" k2="-1" k3="1"/>
<feColorMatrix type="matrix" values="0 0 0 0 0.392157 0 0 0 0 0.454902 0 0 0 0 0.545098 0 0 0 1 0"/>
<feBlend mode="normal" in2="shape" result="effect2_innerShadow_28_234"/>
</filter>
<filter id="filter11_di_28_234" x="23.647" y="14.1626" width="2.16162" height="2.01367" filterUnits="userSpaceOnUse" color-interpolation-filters="sRGB">
<feFlood flood-opacity="0" result="BackgroundImageFix"/>
<feColorMatrix in="SourceAlpha" type="matrix" values="0 0 0 0 0 0 0 0 0 0 0 0 0 0 0 0 0 0 127 0" result="hardAlpha"/>
<feOffset dy="0.5"/>
<feGaussianBlur stdDeviation="0.25"/>
<feComposite in2="hardAlpha" operator="out"/>
<feColorMatrix type="matrix" values="0 0 0 0 0.886275 0 0 0 0 0.909804 0 0 0 0 0.941176 0 0 0 0.7 0"/>
<feBlend mode="normal" in2="BackgroundImageFix" result="effect1_dropShadow_28_234"/>
<feBlend mode="normal" in="SourceGraphic" in2="effect1_dropShadow_28_234" result="shape"/>
<feColorMatrix in="SourceAlpha" type="matrix" values="0 0 0 0 0 0 0 0 0 0 0 0 0 0 0 0 0 0 127 0" result="hardAlpha"/>
<feOffset dy="0.5"/>
<feGaussianBlur stdDeviation="0.5"/>
<feComposite in2="hardAlpha" operator="arithmetic" k2="-1" k3="1"/>
<feColorMatrix type="matrix" values="0 0 0 0 0.392157 0 0 0 0 0.454902 0 0 0 0 0.545098 0 0 0 1 0"/>
<feBlend mode="normal" in2="shape" result="effect2_innerShadow_28_234"/>
</filter>
<filter id="filter12_di_28_234" x="19.6479" y="22.1646" width="2.16162" height="2.01367" filterUnits="userSpaceOnUse" color-interpolation-filters="sRGB">
<feFlood flood-opacity="0" result="BackgroundImageFix"/>
<feColorMatrix in="SourceAlpha" type="matrix" values="0 0 0 0 0 0 0 0 0 0 0 0 0 0 0 0 0 0 127 0" result="hardAlpha"/>
<feOffset dy="0.5"/>
<feGaussianBlur stdDeviation="0.25"/>
<feComposite in2="hardAlpha" operator="out"/>
<feColorMatrix type="matrix" values="0 0 0 0 0.886275 0 0 0 0 0.909804 0 0 0 0 0.941176 0 0 0 0.7 0"/>
<feBlend mode="normal" in2="BackgroundImageFix" result="effect1_dropShadow_28_234"/>
<feBlend mode="normal" in="SourceGraphic" in2="effect1_dropShadow_28_234" result="shape"/>
<feColorMatrix in="SourceAlpha" type="matrix" values="0 0 0 0 0 0 0 0 0 0 0 0 0 0 0 0 0 0 127 0" result="hardAlpha"/>
<feOffset dy="0.5"/>
<feGaussianBlur stdDeviation="0.5"/>
<feComposite in2="hardAlpha" operator="arithmetic" k2="-1" k3="1"/>
<feColorMatrix type="matrix" values="0 0 0 0 0.392157 0 0 0 0 0.454902 0 0 0 0 0.545098 0 0 0 1 0"/>
<feBlend mode="normal" in2="shape" result="effect2_innerShadow_28_234"/>
</filter>
<filter id="filter13_di_28_234" x="31.7349" y="27.0796" width="1.98779" height="2.18359" filterUnits="userSpaceOnUse" color-interpolation-filters="sRGB">
<feFlood flood-opacity="0" result="BackgroundImageFix"/>
<feColorMatrix in="SourceAlpha" type="matrix" values="0 0 0 0 0 0 0 0 0 0 0 0 0 0 0 0 0 0 127 0" result="hardAlpha"/>
<feOffset dy="0.5"/>
<feGaussianBlur stdDeviation="0.25"/>
<feComposite in2="hardAlpha" operator="out"/>
<feColorMatrix type="matrix" values="0 0 0 0 0.886275 0 0 0 0 0.909804 0 0 0 0 0.941176 0 0 0 0.4 0"/>
<feBlend mode="normal" in2="BackgroundImageFix" result="effect1_dropShadow_28_234"/>
<feBlend mode="normal" in="SourceGraphic" in2="effect1_dropShadow_28_234" result="shape"/>
<feColorMatrix in="SourceAlpha" type="matrix" values="0 0 0 0 0 0 0 0 0 0 0 0 0 0 0 0 0 0 127 0" result="hardAlpha"/>
<feOffset dy="0.5"/>
<feGaussianBlur stdDeviation="0.5"/>
<feComposite in2="hardAlpha" operator="arithmetic" k2="-1" k3="1"/>
<feColorMatrix type="matrix" values="0 0 0 0 0.392157 0 0 0 0 0.454902 0 0 0 0 0.545098 0 0 0 1 0"/>
<feBlend mode="normal" in2="shape" result="effect2_innerShadow_28_234"/>
</filter>
<filter id="filter14_di_28_234" x="21.5454" y="30.0386" width="1.98779" height="2.18359" filterUnits="userSpaceOnUse" color-interpolation-filters="sRGB">
<feFlood flood-opacity="0" result="BackgroundImageFix"/>
<feColorMatrix in="SourceAlpha" type="matrix" values="0 0 0 0 0 0 0 0 0 0 0 0 0 0 0 0 0 0 127 0" result="hardAlpha"/>
<feOffset dy="0.5"/>
<feGaussianBlur stdDeviation="0.25"/>
<feComposite in2="hardAlpha" operator="out"/>
<feColorMatrix type="matrix" values="0 0 0 0 0.886275 0 0 0 0 0.909804 0 0 0 0 0.941176 0 0 0 0.4 0"/>
<feBlend mode="normal" in2="BackgroundImageFix" result="effect1_dropShadow_28_234"/>
<feBlend mode="normal" in="SourceGraphic" in2="effect1_dropShadow_28_234" result="shape"/>
<feColorMatrix in="SourceAlpha" type="matrix" values="0 0 0 0 0 0 0 0 0 0 0 0 0 0 0 0 0 0 127 0" result="hardAlpha"/>
<feOffset dy="0.5"/>
<feGaussianBlur stdDeviation="0.5"/>
<feComposite in2="hardAlpha" operator="arithmetic" k2="-1" k3="1"/>
<feColorMatrix type="matrix" values="0 0 0 0 0.392157 0 0 0 0 0.454902 0 0 0 0 0.545098 0 0 0 1 0"/>
<feBlend mode="normal" in2="shape" result="effect2_innerShadow_28_234"/>
</filter>
<filter id="filter15_di_28_234" x="24.5454" y="39.0386" width="1.98779" height="2.18359" filterUnits="userSpaceOnUse" color-interpolation-filters="sRGB">
<feFlood flood-opacity="0" result="BackgroundImageFix"/>
<feColorMatrix in="SourceAlpha" type="matrix" values="0 0 0 0 0 0 0 0 0 0 0 0 0 0 0 0 0 0 127 0" result="hardAlpha"/>
<feOffset dy="0.5"/>
<feGaussianBlur stdDeviation="0.25"/>
<feComposite in2="hardAlpha" operator="out"/>
<feColorMatrix type="matrix" values="0 0 0 0 0.886275 0 0 0 0 0.909804 0 0 0 0 0.941176 0 0 0 0.2 0"/>
<feBlend mode="normal" in2="BackgroundImageFix" result="effect1_dropShadow_28_234"/>
<feBlend mode="normal" in="SourceGraphic" in2="effect1_dropShadow_28_234" result="shape"/>
<feColorMatrix in="SourceAlpha" type="matrix" values="0 0 0 0 0 0 0 0 0 0 0 0 0 0 0 0 0 0 127 0" result="hardAlpha"/>
<feOffset dy="0.5"/>
<feGaussianBlur stdDeviation="0.5"/>
<feComposite in2="hardAlpha" operator="arithmetic" k2="-1" k3="1"/>
<feColorMatrix type="matrix" values="0 0 0 0 0.392157 0 0 0 0 0.454902 0 0 0 0 0.545098 0 0 0 1 0"/>
<feBlend mode="normal" in2="shape" result="effect2_innerShadow_28_234"/>
</filter>
<filter id="filter16_d_28_234" x="9" y="15" width="54" height="38" filterUnits="userSpaceOnUse" color-interpolation-filters="sRGB">
<feFlood flood-opacity="0" result="BackgroundImageFix"/>
<feColorMatrix in="SourceAlpha" type="matrix" values="0 0 0 0 0 0 0 0 0 0 0 0 0 0 0 0 0 0 127 0" result="hardAlpha"/>
<feOffset dy="2"/>
<feGaussianBlur stdDeviation="2"/>
<feComposite in2="hardAlpha" operator="out"/>
<feColorMatrix type="matrix" values="0 0 0 0 0.278431 0 0 0 0 0.333333 0 0 0 0 0.411765 0 0 0 0.4 0"/>
<feBlend mode="normal" in2="BackgroundImageFix" result="effect1_dropShadow_28_234"/>
<feBlend mode="normal" in="SourceGraphic" in2="effect1_dropShadow_28_234" result="shape"/>
</filter>
<filter id="filter17_ii_28_234" x="13" y="27" width="46" height="22" filterUnits="userSpaceOnUse" color-interpolation-filters="sRGB">
<feFlood flood-opacity="0" result="BackgroundImageFix"/>
<feBlend mode="normal" in="SourceGraphic" in2="BackgroundImageFix" result="shape"/>
<feColorMatrix in="SourceAlpha" type="matrix" values="0 0 0 0 0 0 0 0 0 0 0 0 0 0 0 0 0 0 127 0" result="hardAlpha"/>
<feOffset dy="2"/>
<feGaussianBlur stdDeviation="1"/>
<feComposite in2="hardAlpha" operator="arithmetic" k2="-1" k3="1"/>
<feColorMatrix type="matrix" values="0 0 0 0 0.796078 0 0 0 0 0.835294 0 0 0 0 0.882353 0 0 0 1 0"/>
<feBlend mode="normal" in2="shape" result="effect1_innerShadow_28_234"/>
<feColorMatrix in="SourceAlpha" type="matrix" values="0 0 0 0 0 0 0 0 0 0 0 0 0 0 0 0 0 0 127 0" result="hardAlpha"/>
<feOffset dy="-2"/>
<feGaussianBlur stdDeviation="1"/>
<feComposite in2="hardAlpha" operator="arithmetic" k2="-1" k3="1"/>
<feColorMatrix type="matrix" values="0 0 0 0 0.796078 0 0 0 0 0.835294 0 0 0 0 0.882353 0 0 0 0.6 0"/>
<feBlend mode="normal" in2="effect1_innerShadow_28_234" result="effect2_innerShadow_28_234"/>
</filter>
<filter id="filter18_f_28_234" x="13" y="33" width="14" height="14" filterUnits="userSpaceOnUse" color-interpolation-filters="sRGB">
<feFlood flood-opacity="0" result="BackgroundImageFix"/>
<feBlend mode="normal" in="SourceGraphic" in2="BackgroundImageFix" result="shape"/>
<feGaussianBlur stdDeviation="1" result="effect1_foregroundBlur_28_234"/>
</filter>
<filter id="filter19_i_28_234" x="19" y="25" width="16" height="18" filterUnits="userSpaceOnUse" color-interpolation-filters="sRGB">
<feFlood flood-opacity="0" result="BackgroundImageFix"/>
<feBlend mode="normal" in="SourceGraphic" in2="BackgroundImageFix" result="shape"/>
<feColorMatrix in="SourceAlpha" type="matrix" values="0 0 0 0 0 0 0 0 0 0 0 0 0 0 0 0 0 0 127 0" result="hardAlpha"/>
<feOffset dy="2"/>
<feGaussianBlur stdDeviation="1"/>
<feComposite in2="hardAlpha" operator="arithmetic" k2="-1" k3="1"/>
<feColorMatrix type="matrix" values="0 0 0 0 0.796078 0 0 0 0 0.835294 0 0 0 0 0.882353 0 0 0 1 0"/>
<feBlend mode="normal" in2="shape" result="effect1_innerShadow_28_234"/>
</filter>
<filter id="filter20_f_28_234" x="19" y="25" width="16" height="14" filterUnits="userSpaceOnUse" color-interpolation-filters="sRGB">
<feFlood flood-opacity="0" result="BackgroundImageFix"/>
<feBlend mode="normal" in="SourceGraphic" in2="BackgroundImageFix" result="shape"/>
<feGaussianBlur stdDeviation="1" result="effect1_foregroundBlur_28_234"/>
</filter>
<filter id="filter21_f_28_234" x="44" y="30" width="14" height="14" filterUnits="userSpaceOnUse" color-interpolation-filters="sRGB">
<feFlood flood-opacity="0" result="BackgroundImageFix"/>
<feBlend mode="normal" in="SourceGraphic" in2="BackgroundImageFix" result="shape"/>
<feGaussianBlur stdDeviation="1" result="effect1_foregroundBlur_28_234"/>
</filter>
<filter id="filter22_i_28_234" x="28" y="17" width="25" height="27" filterUnits="userSpaceOnUse" color-interpolation-filters="sRGB">
<feFlood flood-opacity="0" result="BackgroundImageFix"/>
<feBlend mode="normal" in="SourceGraphic" in2="BackgroundImageFix" result="shape"/>
<feColorMatrix in="SourceAlpha" type="matrix" values="0 0 0 0 0 0 0 0 0 0 0 0 0 0 0 0 0 0 127 0" result="hardAlpha"/>
<feOffset dy="2"/>
<feGaussianBlur stdDeviation="1"/>
<feComposite in2="hardAlpha" operator="arithmetic" k2="-1" k3="1"/>
<feColorMatrix type="matrix" values="0 0 0 0 0.796078 0 0 0 0 0.835294 0 0 0 0 0.882353 0 0 0 1 0"/>
<feBlend mode="normal" in2="shape" result="effect1_innerShadow_28_234"/>
</filter>
<filter id="filter23_f_28_234" x="31" y="17" width="18" height="14" filterUnits="userSpaceOnUse" color-interpolation-filters="sRGB">
<feFlood flood-opacity="0" result="BackgroundImageFix"/>
<feBlend mode="normal" in="SourceGraphic" in2="BackgroundImageFix" result="shape"/>
<feGaussianBlur stdDeviation="1" result="effect1_foregroundBlur_28_234"/>
</filter>
<filter id="filter24_i_28_234" x="27" y="31" width="18" height="15" filterUnits="userSpaceOnUse" color-interpolation-filters="sRGB">
<feFlood flood-opacity="0" result="BackgroundImageFix"/>
<feBlend mode="normal" in="SourceGraphic" in2="BackgroundImageFix" result="shape"/>
<feColorMatrix in="SourceAlpha" type="matrix" values="0 0 0 0 0 0 0 0 0 0 0 0 0 0 0 0 0 0 127 0" result="hardAlpha"/>
<feOffset dy="2"/>
<feGaussianBlur stdDeviation="1"/>
<feComposite in2="hardAlpha" operator="arithmetic" k2="-1" k3="1"/>
<feColorMatrix type="matrix" values="0 0 0 0 0.796078 0 0 0 0 0.835294 0 0 0 0 0.882353 0 0 0 0.6 0"/>
<feBlend mode="normal" in2="shape" result="effect1_innerShadow_28_234"/>
</filter>
<filter id="filter25_f_28_234" x="27" y="31" width="18" height="13" filterUnits="userSpaceOnUse" color-interpolation-filters="sRGB">
<feFlood flood-opacity="0" result="BackgroundImageFix"/>
<feBlend mode="normal" in="SourceGraphic" in2="BackgroundImageFix" result="shape"/>
<feGaussianBlur stdDeviation="1" result="effect1_foregroundBlur_28_234"/>
</filter>
<linearGradient id="paint0_linear_28_234" x1="23" y1="9.99951" x2="23" y2="41.9995" gradientUnits="userSpaceOnUse">
<stop stop-color="#E2E8F0"/>
<stop offset="1" stop-color="#64748B"/>
</linearGradient>
<linearGradient id="paint1_linear_28_234" x1="22.9998" y1="12.666" x2="22.9998" y2="25.9993" gradientUnits="userSpaceOnUse">
<stop stop-color="#F1F5F9"/>
<stop offset="1" stop-color="#E2E8F0" stop-opacity="0"/>
</linearGradient>
<linearGradient id="paint2_linear_28_234" x1="20" y1="35" x2="20" y2="45" gradientUnits="userSpaceOnUse">
<stop stop-color="white"/>
<stop offset="1" stop-color="#F3F3F3" stop-opacity="0.2"/>
</linearGradient>
<linearGradient id="paint3_linear_28_234" x1="27" y1="27" x2="27" y2="37" gradientUnits="userSpaceOnUse">
<stop stop-color="white"/>
<stop offset="1" stop-color="#F3F3F3" stop-opacity="0.2"/>
</linearGradient>
<linearGradient id="paint4_linear_28_234" x1="51" y1="32" x2="51" y2="42" gradientUnits="userSpaceOnUse">
<stop stop-color="white"/>
<stop offset="1" stop-color="#F3F3F3" stop-opacity="0.2"/>
</linearGradient>
<linearGradient id="paint5_linear_28_234" x1="40" y1="19" x2="40" y2="29" gradientUnits="userSpaceOnUse">
<stop stop-color="white"/>
<stop offset="1" stop-color="#F3F3F3" stop-opacity="0.2"/>
</linearGradient>
<linearGradient id="paint6_linear_28_234" x1="36" y1="31" x2="36" y2="44" gradientUnits="userSpaceOnUse">
<stop stop-color="#F1F5F9"/>
<stop offset="0.650321" stop-color="#F1F5F9" stop-opacity="0"/>
</linearGradient>
<linearGradient id="paint7_linear_28_234" x1="36" y1="33" x2="36" y2="42" gradientUnits="userSpaceOnUse">
<stop stop-color="white"/>
<stop offset="1" stop-color="#F3F3F3" stop-opacity="0.2"/>
</linearGradient>
</defs>
</svg>
