<svg width="64" height="64" viewBox="0 0 64 64" fill="none" xmlns="http://www.w3.org/2000/svg">
<path d="M6 26C2.68625 26 0 28.6875 0 32C0 35.3125 2.68625 38 6 38C9.31375 38 12 35.3125 12 32C12 28.6875 9.31375 26 6 26ZM6 46C2.68625 46 0 48.6875 0 52C0 55.3125 2.68625 58 6 58C9.31375 58 12 55.3125 12 52C12 48.6875 9.31375 46 6 46ZM6 6C2.68625 6 0 8.68625 0 12C0 15.3138 2.68625 18 6 18C9.31375 18 12 15.3125 12 12C12 8.6875 9.31375 6 6 6ZM24 16H60C62.2088 16 64 14.2087 64 12.1125C64 10.0163 62.2125 8 60 8H24C21.7875 8 20 9.79125 20 11.8875C20 13.9837 21.7875 16 24 16ZM60 28H24C21.7875 28 20 29.7875 20 32C20 34.2125 21.7913 36 24 36H60C62.2088 36 64 34.2087 64 32C64 29.7913 62.2125 28 60 28ZM60 48H24C21.7913 48 20 49.7912 20 52C20 54.2088 21.7913 56 24 56H60C62.2088 56 64 54.2088 64 52C64 49.7912 62.2125 48 60 48Z" fill="#787B81"/>
</svg>
