<svg width="64" height="64" viewBox="0 0 64 64" fill="none" xmlns="http://www.w3.org/2000/svg">
<g clip-path="url(#clip0_29_2164)">
<path d="M24 1.11222C24.3905 1.58667 24.6297 2.16731 24.6867 2.77911C24.7437 3.39091 24.616 4.00576 24.32 4.54422C22.0074 8.79012 20.7997 13.5494 20.808 18.3842C20.808 34.4682 33.92 47.4922 50.08 47.4922C52.188 47.4922 54.24 47.2722 56.212 46.8522C56.8165 46.7213 57.4462 46.7714 58.0224 46.9962C58.5986 47.221 59.0958 47.6105 59.452 48.1162C59.828 48.642 60.0196 49.2773 59.9972 49.9233C59.9748 50.5693 59.7395 51.1898 59.328 51.6882C56.1907 55.542 52.233 58.647 47.7433 60.777C43.2537 62.9069 38.3453 64.0081 33.376 64.0002C14.936 64.0002 0 49.1442 0 30.8402C0 17.0642 8.456 5.24822 20.496 0.240217C21.0958 -0.0132551 21.7616 -0.0652793 22.3934 0.0919601C23.0252 0.249199 23.589 0.607212 24 1.11222Z" fill="#787B81"/>
<path d="M43.1762 12.5919C43.2336 12.4186 43.3441 12.2679 43.492 12.1611C43.6399 12.0542 43.8177 11.9967 44.0002 11.9967C44.1827 11.9967 44.3605 12.0542 44.5084 12.1611C44.6564 12.2679 44.7669 12.4186 44.8242 12.5919L46.3722 17.2399C47.0642 19.3119 48.6882 20.9359 50.7602 21.6279L55.4082 23.1759C55.5814 23.2332 55.7322 23.3437 55.839 23.4916C55.9459 23.6396 56.0034 23.8174 56.0034 23.9999C56.0034 24.1823 55.9459 24.3602 55.839 24.5081C55.7322 24.656 55.5814 24.7665 55.4082 24.8239L50.7602 26.3719C49.7383 26.7123 48.8098 27.2861 48.0481 28.0478C47.2865 28.8094 46.7127 29.738 46.3722 30.7599L44.8242 35.4079C44.7669 35.5811 44.6564 35.7318 44.5084 35.8387C44.3605 35.9455 44.1827 36.003 44.0002 36.003C43.8177 36.003 43.6399 35.9455 43.492 35.8387C43.3441 35.7318 43.2336 35.5811 43.1762 35.4079L41.6282 30.7599C41.2878 29.738 40.714 28.8094 39.9523 28.0478C39.1907 27.2861 38.2621 26.7123 37.2402 26.3719L32.5922 24.8239C32.419 24.7665 32.2683 24.656 32.1614 24.5081C32.0546 24.3602 31.9971 24.1823 31.9971 23.9999C31.9971 23.8174 32.0546 23.6396 32.1614 23.4916C32.2683 23.3437 32.419 23.2332 32.5922 23.1759L37.2402 21.6279C38.2621 21.2874 39.1907 20.7136 39.9523 19.952C40.714 19.1903 41.2878 18.2618 41.6282 17.2399L43.1762 12.5919ZM55.4522 0.39587C55.4917 0.281975 55.5657 0.183214 55.6639 0.113316C55.7621 0.043419 55.8797 0.00585937 56.0002 0.00585938C56.1208 0.00585938 56.2383 0.043419 56.3365 0.113316C56.4347 0.183214 56.5087 0.281975 56.5482 0.39587L57.5802 3.49187C58.0402 4.87587 59.1242 5.95987 60.5082 6.41987L63.6042 7.45187C63.7181 7.49136 63.8169 7.56535 63.8868 7.66356C63.9567 7.76177 63.9942 7.87932 63.9942 7.99987C63.9942 8.12042 63.9567 8.23797 63.8868 8.33618C63.8169 8.43439 63.7181 8.50838 63.6042 8.54787L60.5082 9.57987C59.8262 9.80676 59.2064 10.1895 58.6981 10.6978C58.1899 11.2061 57.8071 11.8258 57.5802 12.5079L56.5482 15.6039C56.5087 15.7178 56.4347 15.8165 56.3365 15.8864C56.2383 15.9563 56.1208 15.9939 56.0002 15.9939C55.8797 15.9939 55.7621 15.9563 55.6639 15.8864C55.5657 15.8165 55.4917 15.7178 55.4522 15.6039L54.4202 12.5079C54.1933 11.8258 53.8106 11.2061 53.3023 10.6978C52.794 10.1895 52.1743 9.80676 51.4922 9.57987L48.3962 8.54787C48.2823 8.50838 48.1836 8.43439 48.1137 8.33618C48.0438 8.23797 48.0062 8.12042 48.0062 7.99987C48.0062 7.87932 48.0438 7.76177 48.1137 7.66356C48.1836 7.56535 48.2823 7.49136 48.3962 7.45187L51.4922 6.41987C52.8762 5.95987 53.9602 4.87587 54.4202 3.49187L55.4522 0.39987V0.39587Z" fill="#787B81"/>
</g>
<defs>
<clipPath id="clip0_29_2164">
<rect width="64" height="64" fill="white"/>
</clipPath>
</defs>
</svg>
