<svg width="64" height="64" viewBox="0 0 64 64" fill="none" xmlns="http://www.w3.org/2000/svg">
<path d="M34.6667 40.1893V25.3333C34.6667 24.6 34.0667 24 33.3333 24C32.6 24 32 24.6 32 25.3333V40.1893C29.7067 40.7867 28 42.856 28 45.3333C28 48.2747 30.3893 50.6667 33.3333 50.6667C36.2773 50.6667 38.6667 48.2747 38.6667 45.3333C38.6667 42.856 36.96 40.7867 34.6667 40.1893Z" fill="#787B81"/>
<path d="M42.6667 35.8908V14.6668C42.6667 9.52016 38.48 5.3335 33.3333 5.3335C28.1867 5.3335 24 9.52016 24 14.6668V35.8908C21.5413 38.2962 20 41.6268 20 45.3335C20 52.6855 25.9813 58.6668 33.3333 58.6668C40.6853 58.6668 46.6667 52.6855 46.6667 45.3335C46.6667 41.6268 45.1253 38.2962 42.6667 35.8908ZM33.3333 53.3335C28.9227 53.3335 25.3333 49.7442 25.3333 45.3335C25.3333 42.3868 26.952 39.8348 29.3333 38.4455V14.6668C29.3333 12.4615 31.128 10.6668 33.3333 10.6668C35.5387 10.6668 37.3333 12.4615 37.3333 14.6668V38.4455C39.7147 39.8348 41.3333 42.3868 41.3333 45.3335C41.3333 49.7442 37.744 53.3335 33.3333 53.3335Z" fill="#787B81"/>
</svg>
