<svg width="64" height="64" viewBox="0 0 64 64" fill="none" xmlns="http://www.w3.org/2000/svg">
<path fill-rule="evenodd" clip-rule="evenodd" d="M38.6209 57.3202C37.9344 55.365 36.0709 53.9608 33.8824 53.9608C31.1115 53.9608 28.8627 56.2096 28.8627 58.9804C28.8627 61.7512 31.1115 64 33.8824 64C36.3633 64 38.4264 62.1967 38.8304 59.83C53.1024 57.4657 64 45.0547 64 30.1176C64 26.9227 63.5006 23.8419 62.5769 20.9518C62.3661 20.2918 61.6596 19.9266 60.9995 20.1374C60.3395 20.3482 59.9755 21.056 60.1864 21.7148C61.0334 24.3652 61.4902 27.1887 61.4902 30.1176C61.4902 43.7409 51.6028 55.0726 38.6209 57.3202ZM3.78478 31.2194C4.25537 44.2955 13.0811 55.2584 25.078 58.9252C25.7405 59.1285 26.442 58.7545 26.6453 58.0919C26.8474 57.4293 26.4734 56.7278 25.8121 56.5258C14.8392 53.1715 6.76141 43.1598 6.29584 31.2082C8.44925 30.6435 10.0392 28.682 10.0392 26.3529C10.0392 23.5821 7.79043 21.3333 5.01961 21.3333C2.24878 21.3333 0 23.5821 0 26.3529C0 28.6971 1.61004 30.6685 3.78478 31.2194ZM38.8154 44.1437C39.6888 44.4072 40.6149 44.549 41.5749 44.549C46.8493 44.549 51.131 40.266 51.131 34.9917C51.131 27.9291 46.848 21.4977 42.5023 16.7241C42.1245 16.3087 41.5159 16.1945 41.014 16.4455C40.5107 16.6977 40.2359 17.2511 40.3413 17.8033C40.906 20.7674 39.9071 22.8329 38.4979 24.6049C36.3031 19.9956 33.1369 15.8293 29.9533 12.3319C29.5755 11.9165 28.9669 11.8024 28.4649 12.0533C27.9617 12.3056 27.6869 12.859 27.7923 13.4111C28.8125 18.7633 26.1835 22.0135 23.3788 24.9914C21.8077 26.6579 20.17 28.2453 18.9214 29.9922C17.5511 31.9059 16.6337 34.0053 16.6337 36.549C16.6337 43.3882 22.1854 48.9412 29.0259 48.9412C33.0039 48.9412 36.5465 47.0626 38.8154 44.1437ZM29.2417 30.5029L26.2601 41.6314C26.0806 42.3002 26.4784 42.9892 27.1473 43.1686C27.8162 43.3481 28.5051 42.9503 28.6845 42.2814L31.6662 31.1529C31.8456 30.4841 31.4478 29.7951 30.779 29.6157C30.1101 29.4362 29.4212 29.834 29.2417 30.5029ZM40.202 41.9049C40.645 41.9928 41.1043 42.0392 41.5749 42.0392C45.4638 42.0392 48.6212 38.8819 48.6212 34.9917C48.6212 29.7901 45.9934 25.0014 42.8951 21.0623C42.491 23.5319 41.157 25.4419 39.6009 27.1799C40.7341 30.1653 41.418 33.3064 41.418 36.549C41.418 38.4665 40.9813 40.2836 40.202 41.9049ZM23.3286 41.5247C24.4304 41.5247 25.3252 40.6312 25.3252 39.5294C25.3252 38.4276 24.4304 37.5341 23.3286 37.5341C22.2281 37.5341 21.3333 38.4276 21.3333 39.5294C21.3333 40.6312 22.2281 41.5247 23.3286 41.5247ZM34.5098 35.8776C35.6116 35.8776 36.5051 34.9842 36.5051 33.8824C36.5051 32.7806 35.6116 31.8871 34.5098 31.8871C33.408 31.8871 32.5145 32.7806 32.5145 33.8824C32.5145 34.9842 33.408 35.8776 34.5098 35.8776ZM53.6584 10.8624C53.0598 11.6894 52.7059 12.7059 52.7059 13.8039C52.7059 16.5747 54.9547 18.8235 57.7255 18.8235C60.4963 18.8235 62.7451 16.5747 62.7451 13.8039C62.7451 11.0331 60.4963 8.78431 57.7255 8.78431C56.965 8.78431 56.2435 8.95373 55.5984 9.25741C50.117 3.55263 42.4107 0 33.8824 0C21.4413 0 10.752 7.55953 6.16157 18.3316C5.89051 18.9691 6.18792 19.707 6.82416 19.978C7.46165 20.2491 8.19953 19.9529 8.47059 19.3155C12.6795 9.44063 22.4778 2.5098 33.8824 2.5098C41.6339 2.5098 48.6425 5.71106 53.6584 10.8624Z" fill="#787B81"/>
</svg>
