<svg width="64" height="64" viewBox="0 0 64 64" fill="none" xmlns="http://www.w3.org/2000/svg">
<path d="M31.3501 4.52002V9.35002C31.3501 9.61524 31.4555 9.86959 31.643 10.0571C31.8305 10.2447 32.0849 10.35 32.3501 10.35C32.6153 10.35 32.8697 10.2447 33.0572 10.0571C33.2447 9.86959 33.3501 9.61524 33.3501 9.35002V4.52002C33.3501 4.2548 33.2447 4.00045 33.0572 3.81291C32.8697 3.62538 32.6153 3.52002 32.3501 3.52002C32.0849 3.52002 31.8305 3.62538 31.643 3.81291C31.4555 4.00045 31.3501 4.2548 31.3501 4.52002Z" fill="#787B81"/>
<path d="M57.48 33.48C57.2148 33.48 56.9604 33.5853 56.7729 33.7729C56.5853 33.9604 56.48 34.2148 56.48 34.48C56.48 34.7452 56.5853 34.9996 56.7729 35.1871C56.9604 35.3746 57.2148 35.48 57.48 35.48H62.31C62.5752 35.48 62.8295 35.3746 63.0171 35.1871C63.2046 34.9996 63.31 34.7452 63.31 34.48C63.31 34.2148 63.2046 33.9604 63.0171 33.7729C62.8295 33.5853 62.5752 33.48 62.31 33.48H57.48Z" fill="#787B81"/>
<path d="M2.3999 33.48C2.13469 33.48 1.88033 33.5853 1.6928 33.7729C1.50526 33.9604 1.3999 34.2148 1.3999 34.48C1.3999 34.7452 1.50526 34.9996 1.6928 35.1871C1.88033 35.3746 2.13469 35.48 2.3999 35.48H7.2299C7.49512 35.48 7.74947 35.3746 7.93701 35.1871C8.12455 34.9996 8.2299 34.7452 8.2299 34.48C8.2299 34.2148 8.12455 33.9604 7.93701 33.7729C7.74947 33.5853 7.49512 33.48 7.2299 33.48H2.3999Z" fill="#787B81"/>
<path d="M10.4602 12.5899C10.274 12.7773 10.1694 13.0307 10.1694 13.2949C10.1694 13.5591 10.274 13.8125 10.4602 13.9999L13.8802 17.4199C14.0685 17.6082 14.3239 17.714 14.5902 17.714C14.8565 17.714 15.1119 17.6082 15.3002 17.4199C15.4885 17.2316 15.5943 16.9762 15.5943 16.7099C15.5943 16.4436 15.4885 16.1882 15.3002 15.9999L11.8802 12.5799C11.7866 12.4868 11.6755 12.4132 11.5533 12.3633C11.431 12.3134 11.3002 12.2882 11.1681 12.2891C11.0361 12.29 10.9056 12.3171 10.7841 12.3687C10.6626 12.4203 10.5525 12.4955 10.4602 12.5899Z" fill="#787B81"/>
<path d="M52.8301 12.5901L49.4101 16.0001C49.3054 16.0897 49.2204 16.2 49.1604 16.3241C49.1003 16.4482 49.0666 16.5833 49.0613 16.721C49.056 16.8587 49.0792 16.9961 49.1295 17.1244C49.1797 17.2527 49.256 17.3693 49.3534 17.4667C49.4509 17.5642 49.5674 17.6404 49.6958 17.6907C49.8241 17.741 49.9614 17.7642 50.0991 17.7589C50.2369 17.7535 50.372 17.7198 50.4961 17.6598C50.6201 17.5998 50.7304 17.5147 50.8201 17.4101L54.2501 14.0001C54.4139 13.8088 54.4995 13.5627 54.4898 13.311C54.4801 13.0593 54.3757 12.8206 54.1977 12.6425C54.0196 12.4644 53.7808 12.3601 53.5291 12.3504C53.2775 12.3406 53.0314 12.4262 52.8401 12.5901H52.8301Z" fill="#787B81"/>
<path d="M32.3499 14.44C35.822 14.4367 39.2355 15.3338 42.2574 17.0437C45.2792 18.7536 47.806 21.2178 49.5912 24.1957C51.3764 27.1737 52.3589 30.5637 52.4428 34.0347C52.5267 37.5057 51.7091 40.9392 50.0699 44H14.6399C13.0011 40.94 12.1836 37.5074 12.267 34.0372C12.3505 30.567 13.3321 27.1777 15.1161 24.2C16.9001 21.2223 19.4255 18.758 22.446 17.0474C25.4664 15.3368 28.8787 14.4384 32.3499 14.44Z" fill="#787B81"/>
<path d="M40.6901 48.6499H7.87012C7.6049 48.6499 7.35055 48.7553 7.16301 48.9428C6.97547 49.1303 6.87012 49.3847 6.87012 49.6499C6.87012 49.9151 6.97547 50.1695 7.16301 50.357C7.35055 50.5445 7.6049 50.6499 7.87012 50.6499H40.6901C40.9553 50.6499 41.2097 50.5445 41.3972 50.357C41.5848 50.1695 41.6901 49.9151 41.6901 49.6499C41.6901 49.3847 41.5848 49.1303 41.3972 48.9428C41.2097 48.7553 40.9553 48.6499 40.6901 48.6499Z" fill="#787B81"/>
<path d="M57.3501 52.8999H28.3501C28.0849 52.8999 27.8305 53.0053 27.643 53.1928C27.4555 53.3803 27.3501 53.6347 27.3501 53.8999C27.3501 54.1651 27.4555 54.4195 27.643 54.607C27.8305 54.7945 28.0849 54.8999 28.3501 54.8999H57.3501C57.6153 54.8999 57.8697 54.7945 58.0572 54.607C58.2447 54.4195 58.3501 54.1651 58.3501 53.8999C58.3501 53.6347 58.2447 53.3803 58.0572 53.1928C57.8697 53.0053 57.6153 52.8999 57.3501 52.8999Z" fill="#787B81"/>
<path d="M42.23 59.48C42.23 59.2148 42.1246 58.9604 41.9371 58.7729C41.7496 58.5853 41.4952 58.48 41.23 58.48H23.48C23.2148 58.48 22.9604 58.5853 22.7729 58.7729C22.5853 58.9604 22.48 59.2148 22.48 59.48C22.48 59.7452 22.5853 59.9996 22.7729 60.1871C22.9604 60.3746 23.2148 60.48 23.48 60.48H41.23C41.4952 60.48 41.7496 60.3746 41.9371 60.1871C42.1246 59.9996 42.23 59.7452 42.23 59.48Z" fill="#787B81"/>
</svg>
