<svg width="64" height="64" viewBox="0 0 64 64" fill="none" xmlns="http://www.w3.org/2000/svg">
<path d="M53.2126 14.7815C47.6927 9.29456 40.2565 6.16762 32.4743 6.06093C24.692 5.95424 17.1729 8.87615 11.5047 14.2097C5.83647 19.5432 2.46288 26.8708 2.09631 34.6451C1.72974 42.4195 4.39887 50.032 9.54008 55.8752L9.56258 55.9002C9.60383 55.944 9.64258 55.989 9.68758 56.0315C9.78008 56.1365 9.88508 56.2552 10.0088 56.379C10.4941 56.8948 11.0807 57.3049 11.7318 57.5836C12.3829 57.8623 13.0846 58.0036 13.7928 57.9987C14.501 57.9938 15.2006 57.8427 15.8478 57.555C16.4949 57.2672 17.0757 56.849 17.5538 56.3265C19.3934 54.3272 21.6277 52.7313 24.1156 51.6396C26.6035 50.548 29.2908 49.9844 32.0076 49.9844C34.7244 49.9844 37.4117 50.548 39.8996 51.6396C42.3874 52.7313 44.6218 54.3272 46.4613 56.3265C46.943 56.8517 47.5284 57.2713 48.1807 57.5586C48.8329 57.8458 49.5376 57.9945 50.2503 57.9952C50.963 57.9959 51.668 57.8486 52.3208 57.5626C52.9736 57.2767 53.5599 56.8583 54.0426 56.334L54.4438 55.8965L54.4663 55.8715C59.532 50.1513 62.2234 42.7133 61.9911 35.0761C61.7588 27.4388 58.6203 20.1782 53.2163 14.7765L53.2126 14.7815ZM30.0001 16.0002C30.0001 15.4698 30.2108 14.9611 30.5859 14.586C30.9609 14.2109 31.4696 14.0002 32.0001 14.0002C32.5305 14.0002 33.0392 14.2109 33.4143 14.586C33.7894 14.9611 34.0001 15.4698 34.0001 16.0002V20.0002C34.0001 20.5306 33.7894 21.0393 33.4143 21.4144C33.0392 21.7895 32.5305 22.0002 32.0001 22.0002C31.4696 22.0002 30.9609 21.7895 30.5859 21.4144C30.2108 21.0393 30.0001 20.5306 30.0001 20.0002V16.0002ZM16.0001 38.0002H12.0001C11.4696 38.0002 10.9609 37.7895 10.5859 37.4144C10.2108 37.0393 10.0001 36.5306 10.0001 36.0002C10.0001 35.4698 10.2108 34.9611 10.5859 34.586C10.9609 34.2109 11.4696 34.0002 12.0001 34.0002H16.0001C16.5305 34.0002 17.0392 34.2109 17.4143 34.586C17.7894 34.9611 18.0001 35.4698 18.0001 36.0002C18.0001 36.5306 17.7894 37.0393 17.4143 37.4144C17.0392 37.7895 16.5305 38.0002 16.0001 38.0002ZM22.1001 26.1002C21.725 26.475 21.2165 26.6855 20.6863 26.6855C20.1561 26.6855 19.6476 26.475 19.2726 26.1002L16.4438 23.2727C16.0687 22.8976 15.858 22.3888 15.858 21.8583C15.858 21.3278 16.0687 20.8191 16.4438 20.444C16.8189 20.0688 17.3277 19.8581 17.8582 19.8581C18.3887 19.8581 18.8975 20.0688 19.2726 20.444L22.1001 23.2727C22.4749 23.6477 22.6854 24.1562 22.6854 24.6865C22.6854 25.2167 22.4749 25.7252 22.1001 26.1002ZM40.7626 28.9877L34.8251 38.4252C34.5822 38.7619 34.2867 39.0573 33.9501 39.3002C33.1374 39.8672 32.1338 40.0908 31.1572 39.9224C30.1807 39.7541 29.3099 39.2074 28.7339 38.401C28.158 37.5946 27.9232 36.5936 28.0807 35.6153C28.2382 34.6369 28.7752 33.7601 29.5751 33.1752L39.0126 27.2377C39.2271 27.0882 39.4823 27.008 39.7438 27.008C40.0053 27.008 40.2606 27.0882 40.4751 27.2377C40.7445 27.4322 40.926 27.7255 40.9799 28.0534C41.0337 28.3813 40.9556 28.7172 40.7626 28.9877ZM44.7276 26.1002C44.3495 26.4594 43.846 26.6568 43.3244 26.6501C42.8029 26.6434 42.3046 26.4333 41.9358 26.0645C41.567 25.6957 41.3569 25.1974 41.3502 24.6759C41.3435 24.1543 41.5408 23.6508 41.9001 23.2727L44.7276 20.444C45.1027 20.0688 45.6115 19.8581 46.142 19.8581C46.6725 19.8581 47.1812 20.0688 47.5563 20.444C47.9314 20.8191 48.1422 21.3278 48.1422 21.8583C48.1422 22.3888 47.9314 22.8976 47.5563 23.2727L44.7276 26.1002ZM52.0001 38.0002H48.0001C47.4697 38.0002 46.9609 37.7895 46.5859 37.4144C46.2108 37.0393 46.0001 36.5306 46.0001 36.0002C46.0001 35.4698 46.2108 34.9611 46.5859 34.586C46.9609 34.2109 47.4697 34.0002 48.0001 34.0002H52.0001C52.5305 34.0002 53.0392 34.2109 53.4143 34.586C53.7894 34.9611 54.0001 35.4698 54.0001 36.0002C54.0001 36.5306 53.7894 37.0393 53.4143 37.4144C53.0392 37.7895 52.5305 38.0002 52.0001 38.0002Z" fill="#787B81"/>
</svg>
