<svg width="64" height="64" viewBox="0 0 64 64" fill="none" xmlns="http://www.w3.org/2000/svg">
<path d="M55.0522 36.072L54.0002 35.464C52.7482 34.742 52.0002 33.446 52.0002 32C52.0002 30.554 52.7482 29.258 54.0002 28.536L55.0522 27.928C57.9242 26.268 58.9062 22.604 57.2482 19.732L55.2482 16.268C53.5942 13.402 49.9162 12.418 47.0522 14.072L46.0002 14.678C44.7482 15.402 43.2502 15.402 42.0002 14.678C40.7482 13.954 40.0002 12.66 40.0002 11.214V10C40.0002 6.692 37.3082 4 34.0002 4H30.0002C26.6922 4 24.0002 6.692 24.0002 10V11.216C24.0002 12.662 23.2522 13.956 22.0002 14.68C20.7482 15.402 19.2522 15.404 18.0002 14.68L16.9482 14.072C14.0842 12.418 10.4062 13.402 8.75022 16.268L6.75022 19.732C5.09222 22.604 6.07422 26.27 8.94622 27.928L10.0002 28.536C11.2522 29.258 12.0002 30.554 12.0002 32C12.0002 33.446 11.2522 34.742 10.0002 35.464L8.94822 36.072C6.07622 37.73 5.09422 41.396 6.75222 44.268L8.75222 47.732C10.4082 50.598 14.0862 51.582 16.9482 49.928L18.0002 49.322C19.2522 48.596 20.7482 48.6 22.0002 49.322C23.2522 50.046 24.0002 51.34 24.0002 52.786V54C24.0002 57.308 26.6922 60 30.0002 60H34.0002C37.3082 60 40.0002 57.308 40.0002 54V52.784C40.0002 51.338 40.7482 50.044 42.0002 49.32C43.2502 48.598 44.7482 48.596 46.0002 49.32L47.0522 49.928C49.9162 51.58 53.5942 50.596 55.2482 47.732L57.2482 44.268C58.9062 41.396 57.9242 37.73 55.0522 36.072ZM32.0002 42C26.4862 42 22.0002 37.514 22.0002 32C22.0002 26.486 26.4862 22 32.0002 22C37.5142 22 42.0002 26.486 42.0002 32C42.0002 37.514 37.5142 42 32.0002 42Z" fill="#787B81"/>
</svg>
