<svg width="64" height="64" viewBox="0 0 64 64" fill="none" xmlns="http://www.w3.org/2000/svg">
<g clip-path="url(#clip0_29_2180)">
<path d="M30.584 4.58416C30.7698 4.3979 30.9905 4.25013 31.2335 4.14931C31.4764 4.04848 31.7369 3.99658 32 3.99658C32.2631 3.99658 32.5236 4.04848 32.7665 4.14931C33.0095 4.25013 33.2302 4.3979 33.416 4.58416L39.416 10.5842C39.602 10.7701 39.7495 10.9909 39.8501 11.2338C39.9507 11.4768 40.0025 11.7372 40.0025 12.0002C40.0025 12.2631 39.9507 12.5235 39.8501 12.7665C39.7495 13.0094 39.602 13.2302 39.416 13.4162C39.23 13.6021 39.0093 13.7496 38.7663 13.8503C38.5234 13.9509 38.263 14.0027 38 14.0027C37.737 14.0027 37.4766 13.9509 37.2337 13.8503C36.9907 13.7496 36.77 13.6021 36.584 13.4162L34 10.8282V18.0002C34 18.5306 33.7893 19.0393 33.4142 19.4144C33.0391 19.7894 32.5304 20.0002 32 20.0002C31.4696 20.0002 30.9609 19.7894 30.5858 19.4144C30.2107 19.0393 30 18.5306 30 18.0002V10.8282L27.416 13.4162C27.23 13.6021 27.0093 13.7496 26.7663 13.8503C26.5234 13.9509 26.263 14.0027 26 14.0027C25.737 14.0027 25.4766 13.9509 25.2337 13.8503C24.9907 13.7496 24.77 13.6021 24.584 13.4162C24.398 13.2302 24.2505 13.0094 24.1499 12.7665C24.0493 12.5235 23.9975 12.2631 23.9975 12.0002C23.9975 11.7372 24.0493 11.4768 24.1499 11.2338C24.2505 10.9909 24.398 10.7701 24.584 10.5842L30.584 4.58416ZM9.372 17.3722C9.74706 16.9972 10.2557 16.7866 10.786 16.7866C11.3163 16.7866 11.8249 16.9972 12.2 17.3722L17.856 23.0282C18.2203 23.4054 18.4219 23.9106 18.4173 24.435C18.4128 24.9594 18.2025 25.461 17.8316 25.8318C17.4608 26.2026 16.9592 26.4129 16.4348 26.4175C15.9104 26.4221 15.4052 26.2205 15.028 25.8562L9.372 20.2002C8.99706 19.8251 8.78643 19.3165 8.78643 18.7862C8.78643 18.2558 8.99706 17.7472 9.372 17.3722ZM54.628 17.3722C55.0029 17.7472 55.2136 18.2558 55.2136 18.7862C55.2136 19.3165 55.0029 19.8251 54.628 20.2002L48.972 25.8562C48.7875 26.0472 48.5668 26.1995 48.3228 26.3044C48.0788 26.4092 47.8164 26.4643 47.5508 26.4667C47.2852 26.469 47.0219 26.4184 46.7761 26.3178C46.5303 26.2172 46.307 26.0687 46.1192 25.8809C45.9314 25.6932 45.7829 25.4699 45.6824 25.2241C45.5818 24.9783 45.5312 24.7149 45.5335 24.4494C45.5358 24.1838 45.591 23.9214 45.6958 23.6773C45.8006 23.4333 45.953 23.2127 46.144 23.0282L51.8 17.3722C52.1751 16.9972 52.6837 16.7866 53.214 16.7866C53.7443 16.7866 54.2529 16.9972 54.628 17.3722ZM46.836 46.0002C47.8167 43.5715 48.1863 40.9393 47.9121 38.3345C47.638 35.7297 46.7286 33.2321 45.2638 31.0608C43.799 28.8896 41.8236 27.1111 39.5109 25.8816C37.1983 24.6521 34.6192 24.0091 32 24.0091C29.3808 24.0091 26.8017 24.6521 24.4891 25.8816C22.1764 27.1111 20.201 28.8896 18.7362 31.0608C17.2714 33.2321 16.362 35.7297 16.0879 38.3345C15.8137 40.9393 16.1833 43.5715 17.164 46.0002H2C1.46957 46.0002 0.960859 46.2109 0.585786 46.5859C0.210714 46.961 0 47.4697 0 48.0002C0 48.5306 0.210714 49.0393 0.585786 49.4144C0.960859 49.7894 1.46957 50.0002 2 50.0002H62C62.5304 50.0002 63.0391 49.7894 63.4142 49.4144C63.7893 49.0393 64 48.5306 64 48.0002C64 47.4697 63.7893 46.961 63.4142 46.5859C63.0391 46.2109 62.5304 46.0002 62 46.0002H46.84H46.836ZM0 40.0002C0 39.4697 0.210714 38.961 0.585786 38.5859C0.960859 38.2109 1.46957 38.0002 2 38.0002H10C10.5304 38.0002 11.0391 38.2109 11.4142 38.5859C11.7893 38.961 12 39.4697 12 40.0002C12 40.5306 11.7893 41.0393 11.4142 41.4144C11.0391 41.7894 10.5304 42.0002 10 42.0002H2C1.46957 42.0002 0.960859 41.7894 0.585786 41.4144C0.210714 41.0393 0 40.5306 0 40.0002ZM52 40.0002C52 39.4697 52.2107 38.961 52.5858 38.5859C52.9609 38.2109 53.4696 38.0002 54 38.0002H62C62.5304 38.0002 63.0391 38.2109 63.4142 38.5859C63.7893 38.961 64 39.4697 64 40.0002C64 40.5306 63.7893 41.0393 63.4142 41.4144C63.0391 41.7894 62.5304 42.0002 62 42.0002H54C53.4696 42.0002 52.9609 41.7894 52.5858 41.4144C52.2107 41.0393 52 40.5306 52 40.0002Z" fill="#787B81"/>
</g>
<defs>
<clipPath id="clip0_29_2180">
<rect width="64" height="64" fill="white"/>
</clipPath>
</defs>
</svg>
