<svg width="64" height="64" viewBox="0 0 64 64" fill="none" xmlns="http://www.w3.org/2000/svg">
<g clip-path="url(#clip0_29_2182)">
<path d="M30.584 19.416C30.7698 19.6023 30.9905 19.75 31.2335 19.8509C31.4764 19.9517 31.7369 20.0036 32 20.0036C32.2631 20.0036 32.5236 19.9517 32.7665 19.8509C33.0095 19.75 33.2302 19.6023 33.416 19.416L39.416 13.416C39.602 13.23 39.7495 13.0093 39.8501 12.7663C39.9507 12.5234 40.0025 12.263 40.0025 12C40.0025 11.737 39.9507 11.4766 39.8501 11.2337C39.7495 10.9907 39.602 10.77 39.416 10.584C39.23 10.398 39.0093 10.2505 38.7663 10.1499C38.5234 10.0493 38.263 9.99747 38 9.99747C37.737 9.99747 37.4766 10.0493 37.2337 10.1499C36.9907 10.2505 36.77 10.398 36.584 10.584L34 13.172V6C34 5.46957 33.7893 4.96086 33.4142 4.58579C33.0391 4.21071 32.5304 4 32 4C31.4696 4 30.9609 4.21071 30.5858 4.58579C30.2107 4.96086 30 5.46957 30 6V13.172L27.416 10.584C27.23 10.398 27.0093 10.2505 26.7663 10.1499C26.5234 10.0493 26.263 9.99747 26 9.99747C25.737 9.99747 25.4766 10.0493 25.2337 10.1499C24.9907 10.2505 24.77 10.398 24.584 10.584C24.398 10.77 24.2505 10.9907 24.1499 11.2337C24.0493 11.4766 23.9975 11.737 23.9975 12C23.9975 12.263 24.0493 12.5234 24.1499 12.7663C24.2505 13.0093 24.398 13.23 24.584 13.416L30.584 19.416ZM9.372 17.376C9.74706 17.0011 10.2557 16.7904 10.786 16.7904C11.3163 16.7904 11.8249 17.0011 12.2 17.376L17.856 23.028C18.2203 23.4052 18.4219 23.9104 18.4173 24.4348C18.4128 24.9592 18.2025 25.4608 17.8316 25.8316C17.4608 26.2025 16.9592 26.4128 16.4348 26.4173C15.9104 26.4219 15.4052 26.2203 15.028 25.856L9.372 20.2C8.99706 19.8249 8.78643 19.3163 8.78643 18.786C8.78643 18.2557 8.99706 17.7511 9.372 17.376ZM54.628 17.376C55.0017 17.7509 55.2116 18.2587 55.2116 18.788C55.2116 19.3173 55.0017 19.8251 54.628 20.2L48.972 25.856C48.7875 26.047 48.5668 26.1994 48.3228 26.3042C48.0788 26.409 47.8164 26.4642 47.5508 26.4665C47.2852 26.4688 47.0219 26.4182 46.7761 26.3176C46.5303 26.2171 46.307 26.0686 46.1192 25.8808C45.9314 25.693 45.7829 25.4697 45.6824 25.2239C45.5818 24.9781 45.5312 24.7148 45.5335 24.4492C45.5358 24.1836 45.591 23.9212 45.6958 23.6772C45.8006 23.4332 45.953 23.2125 46.144 23.028L51.8 17.372C52.1751 16.9971 52.6837 16.7864 53.214 16.7864C53.7443 16.7864 54.2529 17.0011 54.628 17.376ZM46.836 46C47.8167 43.5714 48.1863 40.9391 47.9121 38.3344C47.638 35.7296 46.7286 33.2319 45.2638 31.0607C43.799 28.8894 41.8236 27.1109 39.5109 25.8814C37.1983 24.6519 34.6192 24.0089 32 24.0089C29.3808 24.0089 26.8017 24.6519 24.4891 25.8814C22.1764 27.1109 20.201 28.8894 18.7362 31.0607C17.2714 33.2319 16.362 35.7296 16.0879 38.3344C15.8137 40.9391 16.1833 43.5714 17.164 46H2C1.46957 46 0.960859 46.2107 0.585786 46.5858C0.210714 46.9609 0 47.4696 0 48C0 48.5304 0.210714 49.0391 0.585786 49.4142C0.960859 49.7893 1.46957 50 2 50H62C62.5304 50 63.0391 49.7893 63.4142 49.4142C63.7893 49.0391 64 48.5304 64 48C64 47.4696 63.7893 46.9609 63.4142 46.5858C63.0391 46.2107 62.5304 46 62 46H46.84H46.836ZM0 40C0 39.4696 0.210714 38.9609 0.585786 38.5858C0.960859 38.2107 1.46957 38 2 38H10C10.5304 38 11.0391 38.2107 11.4142 38.5858C11.7893 38.9609 12 39.4696 12 40C12 40.5304 11.7893 41.0391 11.4142 41.4142C11.0391 41.7893 10.5304 42 10 42H2C1.46957 42 0.960859 41.7893 0.585786 41.4142C0.210714 41.0391 0 40.5304 0 40ZM52 40C52 39.4696 52.2107 38.9609 52.5858 38.5858C52.9609 38.2107 53.4696 38 54 38H62C62.5304 38 63.0391 38.2107 63.4142 38.5858C63.7893 38.9609 64 39.4696 64 40C64 40.5304 63.7893 41.0391 63.4142 41.4142C63.0391 41.7893 62.5304 42 62 42H54C53.4696 42 52.9609 41.7893 52.5858 41.4142C52.2107 41.0391 52 40.5304 52 40Z" fill="#787B81"/>
</g>
<defs>
<clipPath id="clip0_29_2182">
<rect width="64" height="64" fill="white"/>
</clipPath>
</defs>
</svg>
