<svg width="64" height="64" viewBox="0 0 64 64" fill="none" xmlns="http://www.w3.org/2000/svg">
<g clip-path="url(#clip0_29_2128)">
<path d="M32 19.8877C25.3725 19.8877 20.1125 25.2602 20.1125 31.7752C20.1125 38.2902 25.2625 43.8877 32 43.8877C38.7375 43.8877 43.8875 38.5152 43.8875 32.0002C43.8875 25.4852 38.625 19.8877 32 19.8877ZM63.6625 43.3752L55.7625 31.8877L63.6563 20.5115C64.4478 19.3708 63.7943 17.794 62.428 17.5465L48.803 15.084L46.3405 1.45897C46.0936 0.0927218 44.5168 -0.561028 43.3755 0.230972L32 8.23647L20.5125 0.342222C19.3719 -0.449278 17.795 0.203847 17.5475 1.57022L15.2 15.2002L1.57001 17.6627C0.204135 17.9002 -0.44949 19.4877 0.34201 20.5127L8.23626 32.0002L0.34251 43.3765C-0.44899 44.5171 0.204385 46.094 1.57051 46.3415L15.1955 48.804L17.658 62.429C17.9049 63.7952 19.4818 64.449 20.623 63.657L32 55.7627L43.3763 63.6565C44.5171 64.4482 46.095 63.7948 46.3413 62.4287L48.8038 48.8037L62.4288 46.3412C63.8 46.1002 64.45 44.5127 63.6625 43.3752ZM32 47.8877C23.1638 47.8877 16.1125 40.724 16.1125 32.0002C16.1125 23.164 23.2763 16.1127 32 16.1127C40.7238 16.1127 47.8875 23.2752 47.8875 32.0002C47.8875 40.8377 40.8375 47.8877 32 47.8877Z" fill="#787B81"/>
</g>
<defs>
<clipPath id="clip0_29_2128">
<rect width="64" height="64" fill="white"/>
</clipPath>
</defs>
</svg>
