<svg width="64" height="64" viewBox="0 0 64 64" fill="none" xmlns="http://www.w3.org/2000/svg">
<path d="M32 16C21.7625 16 13.7875 22.1 4 32C12.425 40.4625 19.5 48 32 48C44.4875 48 53.675 38.45 60 32.175C53.525 24.825 44.35 16 32 16ZM32 43.4125C25.825 43.4125 20.8 38.2875 20.8 32C20.8 25.7 25.825 20.5875 32 20.5875C38.175 20.5875 43.2 25.7125 43.2 32C43.2 38.3 38.175 43.4125 32 43.4125Z" fill="#787B81"/>
<path d="M31.9999 27.9999C31.9999 27.0124 32.3624 26.1124 32.9499 25.4124C32.6374 25.3624 32.3249 25.3374 31.9999 25.3374C28.3999 25.3374 25.4624 28.3249 25.4624 31.9999C25.4624 35.6749 28.3999 38.6624 31.9999 38.6624C35.5999 38.6624 38.5374 35.6749 38.5374 31.9999C38.5374 31.7124 38.5124 31.4249 38.4874 31.1374C37.7999 31.6749 36.9499 31.9999 36.0124 31.9999C33.7874 31.9999 31.9999 30.2124 31.9999 27.9999Z" fill="#787B81"/>
</svg>
