<svg width="64" height="64" viewBox="0 0 64 64" fill="none" xmlns="http://www.w3.org/2000/svg">
<path d="M21.1599 51.57L19.6299 57.27C19.5905 57.3983 19.5774 57.5332 19.5913 57.6667C19.6052 57.8002 19.6459 57.9295 19.7108 58.0469C19.7757 58.1644 19.8637 58.2676 19.9693 58.3503C20.075 58.4331 20.1962 58.4937 20.3258 58.5286C20.4554 58.5636 20.5907 58.572 20.7236 58.5536C20.8565 58.5351 20.9844 58.49 21.0995 58.4211C21.2147 58.3522 21.3148 58.2608 21.3939 58.1524C21.473 58.0439 21.5294 57.9207 21.5599 57.79L23.0899 52.09C23.1292 51.9617 23.1423 51.8267 23.1284 51.6933C23.1145 51.5598 23.0739 51.4305 23.0089 51.313C22.944 51.1956 22.8561 51.0924 22.7504 51.0096C22.6447 50.9269 22.5235 50.8662 22.3939 50.8313C22.2643 50.7964 22.1291 50.7879 21.9961 50.8064C21.8632 50.8249 21.7353 50.8699 21.6202 50.9388C21.505 51.0078 21.4049 51.0992 21.3258 51.2076C21.2468 51.316 21.1903 51.4393 21.1599 51.57Z" fill="#787B81"/>
<path d="M33.0002 51.5702L31.4702 57.2702C31.4309 57.3985 31.4177 57.5334 31.4317 57.6669C31.4456 57.8004 31.4862 57.9297 31.5511 58.0472C31.6161 58.1646 31.704 58.2678 31.8096 58.3505C31.9153 58.4333 32.0365 58.4939 32.1661 58.5288C32.2957 58.5638 32.431 58.5722 32.5639 58.5538C32.6968 58.5353 32.8247 58.4902 32.9399 58.4213C33.055 58.3524 33.1551 58.261 33.2342 58.1526C33.3133 58.0441 33.3697 57.9209 33.4002 57.7902L34.9302 52.0902C34.989 51.8377 34.9475 51.5722 34.8143 51.3497C34.6811 51.1272 34.4668 50.9652 34.2164 50.8977C33.9661 50.8303 33.6993 50.8627 33.4724 50.9881C33.2455 51.1136 33.0762 51.3223 33.0002 51.5702Z" fill="#787B81"/>
<path d="M44.82 51.5702L43.29 57.2702C43.2507 57.3985 43.2376 57.5334 43.2515 57.6669C43.2654 57.8004 43.306 57.9297 43.371 58.0472C43.4359 58.1646 43.5238 58.2678 43.6295 58.3505C43.7351 58.4333 43.8564 58.4939 43.9859 58.5288C44.1155 58.5638 44.2508 58.5722 44.3837 58.5538C44.5167 58.5353 44.6445 58.4902 44.7597 58.4213C44.8748 58.3524 44.9749 58.261 45.054 58.1526C45.1331 58.0441 45.1896 57.9209 45.22 57.7902L46.75 52.0902C46.8088 51.8377 46.7673 51.5722 46.6341 51.3497C46.501 51.1272 46.2866 50.9652 46.0362 50.8977C45.7859 50.8303 45.5191 50.8627 45.2922 50.9881C45.0653 51.1136 44.896 51.3223 44.82 51.5702Z" fill="#787B81"/>
<path d="M17.2202 9.92998C17.4854 9.92998 17.7398 9.82462 17.9273 9.63709C18.1149 9.44955 18.2202 9.1952 18.2202 8.92998V6.47998C18.2202 6.21476 18.1149 5.96041 17.9273 5.77287C17.7398 5.58534 17.4854 5.47998 17.2202 5.47998C16.955 5.47998 16.7006 5.58534 16.5131 5.77287C16.3256 5.96041 16.2202 6.21476 16.2202 6.47998V8.92998C16.2202 9.1952 16.3256 9.44955 16.5131 9.63709C16.7006 9.82462 16.955 9.92998 17.2202 9.92998Z" fill="#787B81"/>
<path d="M2 22.6899H4.46C4.72522 22.6899 4.97957 22.5846 5.16711 22.397C5.35464 22.2095 5.46 21.9552 5.46 21.6899C5.46 21.4247 5.35464 21.1704 5.16711 20.9828C4.97957 20.7953 4.72522 20.6899 4.46 20.6899H2C1.73478 20.6899 1.48043 20.7953 1.29289 20.9828C1.10536 21.1704 1 21.4247 1 21.6899C1 21.9552 1.10536 22.2095 1.29289 22.397C1.48043 22.5846 1.73478 22.6899 2 22.6899Z" fill="#787B81"/>
<path d="M7.48999 13.3802C7.68047 13.5276 7.91774 13.6013 8.1582 13.5877C8.39865 13.5742 8.62614 13.4743 8.79886 13.3064C8.97157 13.1386 9.07791 12.914 9.09832 12.6741C9.11874 12.4341 9.05186 12.1948 8.90999 12.0002L7.16999 10.2302C6.97869 10.0664 6.73261 9.98077 6.48094 9.99049C6.22926 10.0002 5.99052 10.1045 5.81243 10.2826C5.63433 10.4607 5.53 10.6995 5.52028 10.9511C5.51056 11.2028 5.59616 11.4489 5.75999 11.6402L7.48999 13.3802Z" fill="#787B81"/>
<path d="M6.46017 33.4501C6.59178 33.4509 6.72224 33.4257 6.84408 33.3759C6.96592 33.3262 7.07673 33.2528 7.17017 33.1601L8.91017 31.4201C9.09847 31.2318 9.20426 30.9764 9.20426 30.7101C9.20426 30.4438 9.09847 30.1885 8.91017 30.0001C8.72187 29.8118 8.46647 29.7061 8.20017 29.7061C7.93387 29.7061 7.67847 29.8118 7.49017 30.0001L5.76017 31.7501C5.61914 31.89 5.52296 32.0687 5.48389 32.2635C5.44482 32.4582 5.46463 32.6602 5.5408 32.8436C5.61697 33.0271 5.74604 33.1837 5.91156 33.2935C6.07708 33.4033 6.27155 33.4613 6.47017 33.4601L6.46017 33.4501Z" fill="#787B81"/>
<path d="M26.25 13.6702C26.3816 13.671 26.512 13.6457 26.6339 13.596C26.7557 13.5462 26.8665 13.4729 26.96 13.3802L28.7 11.6402C28.8638 11.4489 28.9494 11.2028 28.9397 10.9511C28.9299 10.6995 28.8256 10.4607 28.6475 10.2826C28.4694 10.1045 28.2307 10.0002 27.979 9.99049C27.7273 9.98077 27.4813 10.0664 27.29 10.2302L25.54 12.0002C25.3989 12.1401 25.3027 12.3188 25.2637 12.5135C25.2246 12.7083 25.2444 12.9102 25.3206 13.0937C25.3968 13.2771 25.5258 13.4337 25.6913 13.5435C25.8569 13.6533 26.0513 13.7114 26.25 13.7102V13.6702Z" fill="#787B81"/>
<path d="M54.44 31.59C54.3083 31.5763 54.1807 31.5367 54.0645 31.4733C53.9483 31.4099 53.8459 31.3242 53.7631 31.2209C53.6803 31.1177 53.6189 30.999 53.5823 30.8718C53.5457 30.7446 53.5347 30.6115 53.55 30.48C53.55 30.48 53.55 30.38 53.55 30.33C53.55 28.9588 53.0053 27.6438 52.0357 26.6743C51.0661 25.7047 49.7511 25.16 48.38 25.16H48.3C47.9946 25.1631 47.6901 25.1932 47.39 25.25H47.23C46.9744 25.3073 46.7237 25.3842 46.48 25.48L46.25 25.58C45.5759 25.8767 44.9732 26.3143 44.4823 26.8632C43.9914 27.4122 43.6237 28.0599 43.404 28.7628C43.1842 29.4657 43.1174 30.2075 43.2082 30.9384C43.2989 31.6692 43.545 32.3722 43.93 33C44.0123 33.1132 44.0699 33.2423 44.0991 33.3792C44.1284 33.516 44.1286 33.6574 44.0997 33.7944C44.0709 33.9313 44.0136 34.0606 43.9316 34.174C43.8497 34.2874 43.7448 34.3823 43.6238 34.4527C43.5029 34.523 43.3685 34.5672 43.2294 34.5823C43.0903 34.5974 42.9496 34.5832 42.8163 34.5405C42.683 34.4979 42.5602 34.4277 42.4558 34.3346C42.3513 34.2415 42.2676 34.1275 42.21 34C41.2623 32.4099 40.9672 30.5146 41.3867 28.7117C41.8062 26.9088 42.9077 25.3384 44.46 24.33C43.7771 21.9368 42.3351 19.8304 40.3511 18.328C38.3671 16.8256 35.9486 16.0085 33.46 16C33.09 16 32.73 16 32.37 16H32.26H32.08H31.96H31.74L31.22 16.08L30.85 16.16L30.42 16.27C29.9399 16.4068 29.469 16.5738 29.01 16.77L28.5 17C28.1573 17.1547 27.8234 17.3283 27.5 17.52L27.04 17.82C26.9123 17.9004 26.7888 17.9872 26.67 18.08L26.58 18.15L26.35 18.33L25.63 18.94L25.34 19.22L24.98 19.61C24.84 19.76 24.73 19.88 24.63 20.01C24.53 20.14 24.38 20.32 24.27 20.46C24.1683 20.6339 24.0781 20.8143 24 21C23.6698 21.4721 23.3788 21.9704 23.13 22.49C23.05 22.66 22.97 22.82 22.9 23C22.83 23.18 22.72 23.42 22.65 23.63C22.58 23.84 22.55 23.91 22.51 24.04C22.47 24.17 22.4 24.4 22.36 24.57C22.32 24.74 22.26 24.97 22.22 25.16C22.0665 25.917 21.9895 26.6876 21.99 27.46C21.99 27.75 21.99 28.03 21.99 28.31C22.0121 28.5738 21.9288 28.8356 21.7582 29.0381C21.5876 29.2406 21.3437 29.3671 21.08 29.39H21C20.748 29.3908 20.5051 29.2965 20.3197 29.1259C20.1343 28.9554 20.0201 28.7211 20 28.47C20 28.13 20 27.79 20 27.47C20 27.15 20 26.96 20 26.71C17.4755 26.872 15.113 28.0099 13.4126 29.8828C11.7121 31.7557 10.807 34.2168 10.8889 36.7452C10.9707 39.2735 12.0331 41.6709 13.8511 43.4299C15.6692 45.1889 18.1003 46.1716 20.63 46.17H53.63C55.4971 46.1617 57.2901 45.4382 58.6402 44.1484C59.9903 42.8586 60.7948 41.1005 60.8883 39.2356C60.9818 37.3708 60.3572 35.541 59.1429 34.1226C57.9286 32.7042 56.2169 31.805 54.36 31.61L54.44 31.59ZM22.76 33.59C22.6451 33.6537 22.5187 33.6942 22.3882 33.7091C22.2577 33.724 22.1254 33.7131 21.9991 33.6768C21.8728 33.6406 21.7549 33.5799 21.6521 33.498C21.5493 33.4162 21.4636 33.3149 21.4 33.2C21.1933 32.8267 21.0033 32.4467 20.83 32.06C20.7399 31.8219 20.744 31.5585 20.8415 31.3233C20.939 31.0882 21.1224 30.899 21.3545 30.7945C21.5866 30.6899 21.8498 30.6778 22.0905 30.7606C22.3312 30.8433 22.5313 31.0148 22.65 31.24C22.8033 31.58 22.97 31.9133 23.15 32.24C23.2633 32.4671 23.2861 32.7288 23.2137 32.972C23.1413 33.2153 22.9791 33.4219 22.76 33.55V33.59Z" fill="#787B81"/>
<path d="M12.6098 27.88L12.7398 27.77L13.0898 27.47L13.6098 27.05L13.9898 26.77L14.5398 26.41L14.9498 26.17L15.5298 25.87L15.9498 25.67L16.5698 25.42L16.9998 25.26L17.6598 25.07L18.0798 24.96C18.3298 24.9 18.5798 24.86 18.8298 24.82L19.1898 24.76C19.5598 24.76 19.9398 24.68 20.3198 24.67C20.3198 24.48 20.4098 24.27 20.4598 24.07L20.5998 23.59V23.52V23.47C20.5998 23.33 20.6998 23.16 20.7598 22.99C20.8198 22.82 20.9398 22.51 21.0498 22.26C21.1298 22.05 21.2298 21.85 21.3198 21.65C21.6084 21.0773 21.9429 20.5288 22.3198 20.01C22.4279 19.8375 22.5447 19.6706 22.6698 19.51C22.7898 19.35 22.9098 19.19 23.0498 19.04C23.1498 18.91 23.2998 18.74 23.4598 18.56L23.8698 18.13C23.3107 17.1304 22.5354 16.2683 21.6004 15.6066C20.6655 14.945 19.5946 14.5006 18.4659 14.3058C17.3372 14.1111 16.1793 14.1709 15.0767 14.4809C13.9741 14.791 12.9547 15.3434 12.0929 16.0978C11.2311 16.8522 10.5488 17.7896 10.0956 18.8416C9.64252 19.8935 9.4301 21.0333 9.47388 22.1778C9.51767 23.3224 9.81656 24.4426 10.3487 25.4569C10.8809 26.4711 11.6329 27.3536 12.5498 28.04L12.6098 27.88Z" fill="#787B81"/>
</svg>
