<svg width="64" height="64" viewBox="0 0 64 64" fill="none" xmlns="http://www.w3.org/2000/svg">
<g clip-path="url(#clip0_29_2132)">
<path d="M19.5875 32.0001H2C0.9 32.0001 0 32.9001 0 34.0001V38.0001C0 39.1001 0.9 40.0001 2 40.0001H19.775C21.7625 40.0001 23.625 41.3626 23.95 43.3251C24.3625 45.8251 22.4375 48.0001 20 48.0001C18.2375 48.0001 16.7375 46.8501 16.2 45.2626C15.9375 44.4751 15.125 44.0001 14.3 44.0001H10.2C8.975 44.0001 7.9875 45.1001 8.2125 46.3001C9.2875 51.8126 14.1625 56.0001 19.9875 56.0001C27.125 56.0001 32.825 49.7376 31.8875 42.4251C31.125 36.3751 25.675 32.0001 19.5875 32.0001ZM2 28.0001H44C51.4625 28.0001 57.35 21.1501 55.725 13.4126C54.775 8.88762 51.1125 5.22512 46.5875 4.27512C39.6625 2.82512 33.45 7.38762 32.225 13.7126C31.9875 14.9126 32.9875 16.0001 34.2 16.0001H38.3C39.1375 16.0001 39.9375 15.5251 40.2 14.7376C40.7375 13.1501 42.2375 12.0001 44 12.0001C46.425 12.0001 48.3625 14.1751 47.95 16.6751C47.625 18.6376 45.775 20.0001 43.775 20.0001H2C0.9 20.0001 0 20.9001 0 22.0001V26.0001C0 27.1001 0.9 28.0001 2 28.0001ZM50 32.0001H30.4625C32.875 34.0751 34.6125 36.8501 35.4375 40.0001H50C53.3125 40.0001 56 42.6876 56 46.0001C56 49.3126 53.3125 52.0001 50 52.0001C47.7625 52.0001 45.8375 50.7626 44.8 48.9501C44.4375 48.3251 43.7125 48.0001 42.9875 48.0001H38.7625C37.4 48.0001 36.3875 49.3501 36.85 50.6376C39.075 56.9626 45.6625 61.2376 53.025 59.6751C58.175 58.5876 62.4125 54.4751 63.6125 49.3376C65.75 40.1876 58.8125 32.0001 50 32.0001Z" fill="#787B81"/>
</g>
<defs>
<clipPath id="clip0_29_2132">
<rect width="64" height="64" fill="white"/>
</clipPath>
</defs>
</svg>
